<svg width="563" height="483" viewBox="0 0 563 483" fill="none" xmlns="http://www.w3.org/2000/svg">
<path d="M336.086 109.874L333.446 156.133C288.106 173.376 252.443 166.741 226.538 153.576C214.917 147.683 205.253 140.458 197.557 133.493C182.542 119.928 175.01 107.317 175.01 107.317L207.433 75.6605C238.618 107.989 273.739 127.152 336.086 109.874Z" fill="#6680FF"/>
<path d="M314.056 151.069C308.482 142.55 296.967 138.457 287.264 141.55C282.748 142.989 278.653 145.813 274.104 147.392C269.11 149.124 263.328 149.461 256.907 148.39C247.3 146.786 238.055 142.279 230.874 135.698C223.694 129.117 218.397 120.299 215.962 110.868C215.906 110.648 216.038 110.422 216.258 110.366C216.48 110.306 216.705 110.443 216.761 110.662C219.156 119.941 224.367 128.616 231.431 135.09C238.495 141.564 247.592 145.998 257.043 147.577C263.323 148.625 268.971 148.301 273.832 146.613C278.374 145.036 282.367 142.245 287.012 140.764C297.057 137.565 308.978 141.798 314.747 150.618C314.872 150.807 314.818 151.063 314.628 151.188C314.441 151.311 314.184 151.264 314.056 151.069Z" fill="white"/>
<path d="M226.538 153.576C214.917 147.683 205.253 140.458 197.557 133.493L217.781 99.727L226.538 153.576Z" fill="black"/>
<path d="M419.643 322.825C419.416 322.825 419.232 322.64 419.232 322.412V287.429C419.232 280.684 424.719 275.195 431.465 275.195H462.617C468.908 275.195 474.027 270.078 474.027 263.786V172.633C474.027 172.405 474.211 172.22 474.439 172.22C474.667 172.22 474.851 172.405 474.851 172.633V263.786C474.851 270.531 469.363 276.02 462.617 276.02H431.465C425.174 276.02 420.056 281.137 420.056 287.429V322.412C420.056 322.64 419.872 322.825 419.643 322.825Z" fill="black"/>
<path d="M145.961 453.987C145.747 453.91 145.636 453.673 145.714 453.459L227.108 227.01C227.183 226.796 227.418 226.685 227.635 226.762C227.851 226.838 227.961 227.075 227.883 227.29L146.489 453.738C146.415 453.947 146.184 454.065 145.961 453.987Z" fill="black"/>
<path d="M561.793 454.011C561.623 454.011 561.464 453.907 561.405 453.738L480.011 227.29C479.934 227.075 480.044 226.838 480.259 226.762C480.476 226.685 480.71 226.796 480.786 227.01L562.181 453.459C562.257 453.673 562.146 453.91 561.932 453.987C561.886 454.003 561.839 454.011 561.793 454.011Z" fill="black"/>
<path d="M192.359 274.721C191.888 280.296 188.104 287.379 182.07 295.358C180.361 297.633 178.452 299.99 176.389 302.394C161.928 319.307 139.689 339.083 118.192 356.726C85.7089 383.461 56.0443 404.41 55.409 404.894L7.74759 363.043L96.2229 274.615L29.4922 216.158L122.611 186.682C122.611 186.682 194.787 246.271 192.359 274.721Z" fill="white"/>
<path d="M55.1379 405.204L7.47652 363.353C7.29502 363.195 7.28912 362.918 7.45648 362.751L95.6207 274.635L29.2212 216.468C28.9796 216.257 29.0609 215.862 29.3685 215.766L122.487 186.288C122.619 186.246 122.767 186.275 122.874 186.364C125.827 188.802 195.189 246.417 192.77 274.757C192.319 280.091 188.83 287.104 182.399 295.607C180.732 297.826 178.815 300.2 176.703 302.663C164.194 317.292 144.596 335.59 118.453 357.046C97.7622 374.08 71.1795 394.219 55.6483 405.23C55.4939 405.341 55.2829 405.332 55.1379 405.204ZM8.35102 363.023L55.4361 404.369C89.5723 380.008 148.76 334.074 176.076 302.127C178.177 299.675 180.084 297.316 181.741 295.111C188.076 286.733 191.51 279.862 191.949 274.687V274.686C194.273 247.447 126.453 190.423 122.52 187.144L30.3149 216.33L96.4952 274.305C96.6755 274.463 96.6814 274.74 96.5141 274.907L8.35102 363.023Z" fill="black"/>
<path d="M19.1255 153.615C19.1255 153.615 20.6529 188.351 57.7744 191.416C103.898 195.224 115.887 143.543 115.887 143.543L19.1255 153.615Z" fill="black"/>
<path d="M44.3823 150.985C44.3823 150.985 -19.4656 198.139 19.0961 244.938C63.1511 298.402 184.167 428.515 184.167 428.515L260.981 421.666L107.497 205.275" fill="white"/>
<path d="M183.866 428.797C182.655 427.496 62.3355 298.062 18.7767 245.199C9.07113 233.421 4.99917 220.568 6.67274 207.003C10.5208 175.808 43.8013 150.902 44.1372 150.654C44.3187 150.519 44.5779 150.558 44.7135 150.74C44.849 150.924 44.8101 151.182 44.6274 151.318C44.2951 151.564 11.2927 176.267 7.49067 207.107C5.84656 220.439 9.85841 233.078 19.4143 244.675C62.2931 296.712 179.606 423.003 184.332 428.088L260.231 421.319L107.161 205.513C107.028 205.328 107.072 205.07 107.259 204.938C107.443 204.807 107.701 204.85 107.833 205.036L261.317 421.427C261.502 421.684 261.336 422.049 261.019 422.077L184.205 428.927C184.077 428.939 183.952 428.89 183.866 428.797Z" fill="black"/>
<path d="M185.653 174.331C178.994 184.231 172.382 193.082 167.055 199.906C160.208 208.686 155.482 214.119 155.482 214.119C155.482 214.119 106.335 216.83 76.1519 187.295C45.9804 157.748 19.1208 153.611 19.1208 153.611C19.1208 153.611 104.449 54.2105 187.633 67.8702C240.893 76.6034 212.772 134.094 185.653 174.331Z" fill="#6680FF"/>
<path d="M185.653 174.331C178.994 184.231 172.382 193.082 167.055 199.906L168.505 169.51L185.653 174.331Z" fill="black"/>
<path d="M322.697 463.778C322.697 466.548 320.446 468.799 317.677 468.799H212.442C210.733 468.799 209.142 467.927 208.223 466.477L201.469 455.882L183.944 428.421C189.441 427.941 233.611 424.092 239.525 423.577L246.479 426.83C248.86 427.938 251.665 426.653 252.36 424.131C253.633 419.617 257.251 416.305 261.624 415.304C262.912 414.985 264.349 414.905 265.572 415.021L271.453 415.563C273.527 415.751 275.036 417.649 274.682 419.7C273.282 427.766 277.731 435.989 285.796 438.993L312.29 448.822C318.549 451.144 322.697 457.108 322.697 463.778Z" fill="#6680FF"/>
<path d="M268.065 460.313H211.128C210.9 460.313 210.716 460.129 210.716 459.901C210.716 459.673 210.9 459.488 211.128 459.488H268.065C268.292 459.488 268.477 459.673 268.477 459.901C268.477 460.129 268.292 460.313 268.065 460.313Z" fill="black"/>
<path d="M214.646 437.143C214.646 445.758 209.154 453.112 201.469 455.882L183.944 428.421L211.263 426.04C213.397 429.211 214.646 433.029 214.646 437.143Z" fill="black"/>
<path d="M201.122 456.103L183.596 428.643C183.43 428.385 183.599 428.037 183.909 428.01L211.227 425.629C211.369 425.609 211.52 425.686 211.605 425.809C213.864 429.167 215.057 433.086 215.057 437.143C215.057 445.684 209.653 453.37 201.61 456.27C201.428 456.334 201.225 456.266 201.122 456.103ZM184.658 428.772L201.639 455.379C209.186 452.513 214.233 445.226 214.233 437.143C214.233 433.332 213.135 429.648 211.055 426.472L184.658 428.772Z" fill="black"/>
<path d="M277.487 432.523C269.455 433.348 261.447 426.65 261.447 417.566C261.447 416.8 261.506 416.046 261.624 415.304C262.912 414.985 264.349 414.905 265.572 415.021L271.453 415.563C273.527 415.751 275.036 417.649 274.682 419.7C273.893 424.249 274.965 428.845 277.487 432.523Z" fill="black"/>
<path d="M261.034 417.566C261.034 416.783 261.096 415.999 261.216 415.239C261.242 415.075 261.363 414.943 261.523 414.903C262.796 414.588 264.204 414.479 265.61 414.609L271.491 415.152C273.752 415.357 275.493 417.433 275.088 419.769C274.326 424.158 275.3 428.604 277.828 432.288C278.003 432.546 277.842 432.9 277.53 432.933C269.295 433.785 261.034 426.898 261.034 417.566ZM261.99 415.641C261.903 416.272 261.858 416.918 261.858 417.566C261.858 425.738 268.615 432.34 276.752 432.154C274.396 428.413 273.518 423.993 274.276 419.629C274.593 417.79 273.224 416.138 271.416 415.973L265.534 415.431C264.317 415.319 263.099 415.399 261.99 415.641Z" fill="black"/>
<path d="M299.436 452.228L273.214 440.59C273.005 440.498 272.911 440.254 273.003 440.045C273.097 439.837 273.345 439.744 273.547 439.836L299.769 451.474C299.978 451.566 300.072 451.81 299.98 452.018C299.887 452.226 299.644 452.321 299.436 452.228Z" fill="black"/>
<path d="M276.273 444.782C276.071 444.68 275.989 444.431 276.092 444.227L278.422 439.62C278.526 439.417 278.778 439.337 278.977 439.438C279.18 439.541 279.261 439.79 279.158 439.993L276.828 444.601C276.726 444.802 276.48 444.885 276.273 444.782Z" fill="black"/>
<path d="M282.24 447.362C282.038 447.258 281.956 447.011 282.059 446.807L284.389 442.2C284.491 441.996 284.744 441.916 284.943 442.017C285.146 442.121 285.228 442.368 285.126 442.572L282.796 447.179C282.694 447.381 282.447 447.464 282.24 447.362Z" fill="black"/>
<path d="M288.208 449.941C288.005 449.838 287.923 449.589 288.026 449.387L290.355 444.78C290.46 444.576 290.707 444.497 290.91 444.597C291.113 444.699 291.194 444.948 291.091 445.151L288.763 449.758C288.66 449.961 288.414 450.044 288.208 449.941Z" fill="black"/>
<path d="M294.173 452.519C293.971 452.417 293.889 452.169 293.992 451.965L296.323 447.358C296.426 447.154 296.678 447.075 296.877 447.176C297.08 447.279 297.162 447.527 297.06 447.731L294.729 452.338C294.626 452.539 294.38 452.623 294.173 452.519Z" fill="black"/>
<path d="M88.4043 481.057C86.5728 483.135 83.3954 483.335 81.3176 481.504L2.37449 411.916C1.09338 410.786 0.475806 409.081 0.74452 407.385L2.68563 394.971L7.69692 362.782L29.7645 379.061L52.5946 395.902L55.6601 402.94C56.7137 405.346 59.6672 406.237 61.857 404.805C65.797 402.26 70.701 402.168 74.6433 404.309C75.4718 404.74 76.2497 405.285 76.9745 405.923C77.8196 406.668 77.8113 406.755 81.8456 411.003C83.2763 412.515 83.1538 414.937 81.5321 416.242C75.1477 421.366 73.0475 430.477 77.1112 438.063L90.4868 462.957C93.6466 468.837 92.8145 476.053 88.4043 481.057Z" fill="#6680FF"/>
<path d="M49.7118 442.333L7.00038 404.684C6.83067 404.533 6.81298 404.271 6.96384 404.1C7.11587 403.929 7.37634 403.914 7.54606 404.064L50.2575 441.714C50.4284 441.864 50.4461 442.126 50.2952 442.296C50.1432 442.469 49.8815 442.483 49.7118 442.333Z" fill="black"/>
<path d="M24.9606 389.627C19.2646 396.089 10.2815 397.975 2.68563 394.971L7.69692 362.782L29.7645 379.061C29.2683 382.85 27.6808 386.541 24.9606 389.627Z" fill="black"/>
<path d="M2.53359 395.355C2.35445 395.283 2.24837 395.098 2.27784 394.908L7.28912 362.719C7.33626 362.416 7.68866 362.266 7.94205 362.451L30.0108 378.73C30.131 378.819 30.1935 378.966 30.1735 379.116C29.649 383.127 27.9542 386.856 25.2706 389.9C19.6677 396.256 10.5455 398.523 2.53359 395.355ZM3.14527 394.706C10.7034 397.547 19.307 395.419 24.6518 389.354C27.1716 386.495 28.7851 383.005 29.3237 379.249L7.9998 363.518L3.14527 394.706Z" fill="black"/>
<path d="M75.1572 427.715C74.8778 427.516 74.6138 427.298 74.3487 427.065C68.1329 421.585 67.5353 412.104 73.0145 405.889C73.5213 405.314 74.0635 404.787 74.6433 404.309C75.4718 404.74 76.2497 405.285 76.9745 405.923C77.8196 406.668 77.8113 406.755 81.8456 411.003C83.2763 412.515 83.1538 414.937 81.5321 416.242C77.9315 419.132 75.697 423.288 75.1572 427.715Z" fill="black"/>
<path d="M74.9179 428.051C74.6268 427.842 74.351 427.617 74.0752 427.373C67.6992 421.753 67.0851 411.993 72.7046 405.616C73.2243 405.028 73.7865 404.481 74.3805 403.991C74.5089 403.884 74.6869 403.868 74.8342 403.942C75.6746 404.381 76.4866 404.943 77.248 405.613C78.106 406.374 78.0741 406.435 82.1461 410.719C83.7183 412.383 83.6264 415.086 81.7913 416.562C78.3181 419.35 76.1083 423.329 75.5673 427.766C75.5272 428.078 75.1701 428.231 74.9179 428.051ZM74.6952 404.805C74.2131 405.221 73.7523 405.676 73.3245 406.161C67.9773 412.228 68.5536 421.61 74.8496 426.953C75.5567 422.588 77.8196 418.692 81.2751 415.92C82.7236 414.752 82.7943 412.608 81.5462 411.286C77.4448 406.969 77.5096 406.948 76.7011 406.232C76.0647 405.671 75.3917 405.191 74.6952 404.805Z" fill="black"/>
<path d="M78.5903 457.011L66.616 430.941C66.5218 430.735 66.6125 430.49 66.8188 430.395C67.0297 430.3 67.2713 430.389 67.3668 430.597L79.3411 456.668C79.4354 456.874 79.3446 457.119 79.1384 457.214C78.9309 457.309 78.687 457.218 78.5903 457.011Z" fill="black"/>
<path d="M66.1399 436.11C66.0562 435.898 66.1588 435.658 66.3697 435.574L71.1653 433.658C71.3775 433.575 71.6167 433.676 71.7016 433.887C71.7853 434.1 71.6827 434.34 71.4706 434.424L66.6762 436.34C66.4522 436.426 66.2212 436.312 66.1399 436.11Z" fill="black"/>
<path d="M68.9107 441.99C68.8259 441.779 68.9284 441.539 69.1405 441.454L73.935 439.539C74.1518 439.455 74.3876 439.557 74.4712 439.768C74.5561 439.981 74.4535 440.22 74.2414 440.305L69.447 442.221C69.2231 442.307 68.9909 442.193 68.9107 441.99Z" fill="black"/>
<path d="M71.6816 447.871C71.5979 447.659 71.7004 447.419 71.9114 447.335L76.7058 445.42C76.9191 445.337 77.1584 445.439 77.2421 445.65C77.3257 445.862 77.2232 446.101 77.0122 446.186L72.2178 448.101C71.9939 448.187 71.7629 448.073 71.6816 447.871Z" fill="black"/>
<path d="M74.4524 453.751C74.3675 453.54 74.4701 453.3 74.6822 453.215L79.4766 451.3C79.6935 451.217 79.9292 451.318 80.0129 451.531C80.0977 451.742 79.9952 451.982 79.783 452.067L74.9886 453.982C74.7647 454.068 74.5325 453.954 74.4524 453.751Z" fill="black"/>
<path d="M551.412 213.941H200.438V227.002H551.412V213.941Z" fill="white"/>
<path d="M551.412 227.415H200.438C200.211 227.415 200.027 227.231 200.027 227.002V213.941C200.027 213.714 200.211 213.529 200.438 213.529H551.412C551.639 213.529 551.824 213.714 551.824 213.941V227.002C551.824 227.231 551.639 227.415 551.412 227.415ZM200.851 226.59H550.999V214.354H200.851V226.59Z" fill="black"/>
<path d="M551.412 213.941H438.933V227.002H551.412V213.941Z" fill="#6680FF"/>
<path d="M551.412 227.415H438.933C438.704 227.415 438.52 227.231 438.52 227.002V213.941C438.52 213.714 438.704 213.529 438.933 213.529H551.412C551.639 213.529 551.824 213.714 551.824 213.941V227.002C551.824 227.231 551.639 227.415 551.412 227.415ZM439.344 226.59H550.999V214.354H439.344V226.59Z" fill="black"/>
<path d="M517.586 118.843L473.849 182.109L453.542 211.479C452.482 213.023 450.725 213.942 448.852 213.942H293.186C288.589 213.942 285.879 208.768 288.495 204.985C375.119 79.6653 346.649 120.853 352.527 112.349C353.588 110.806 355.344 109.886 357.229 109.886H512.883C517.37 109.886 520.238 114.867 517.586 118.843Z" fill="white"/>
<path d="M448.853 214.355H293.186C288.248 214.355 285.347 208.813 288.156 204.751C288.716 203.941 352.106 112.233 352.187 112.115C353.324 110.461 355.208 109.474 357.229 109.474H512.885C517.664 109.474 520.774 114.776 517.929 119.073L453.882 211.714C452.746 213.367 450.867 214.355 448.853 214.355ZM357.229 110.299C355.482 110.299 353.849 111.153 352.866 112.583L288.835 205.22C286.404 208.733 288.914 213.53 293.186 213.53H448.853C450.593 213.53 452.22 212.677 453.203 211.246L517.246 118.609C519.697 115.015 517.103 110.299 512.885 110.299H357.229Z" fill="black"/>
<path d="M517.833 118.454C466.983 192.048 474.654 180.945 473.849 182.109L453.542 211.479C452.482 213.023 450.725 213.942 448.852 213.942H252.443C252.443 207.719 257.488 202.675 263.71 202.675H443.729C445.33 202.675 446.829 201.895 447.748 200.584L511.304 109.886H512.883C517.338 109.886 520.014 114.707 517.833 118.454Z" fill="#FFC176"/>
<path d="M448.853 214.355H252.443C252.215 214.355 252.031 214.171 252.031 213.942C252.031 207.503 257.27 202.263 263.711 202.263H443.729C445.193 202.263 446.57 201.547 447.411 200.348L510.966 109.651C511.044 109.54 511.17 109.474 511.304 109.474H512.885C517.632 109.474 520.545 114.614 518.19 118.663C518.11 118.799 499.601 145.56 453.882 211.714C452.746 213.367 450.867 214.355 448.853 214.355ZM252.863 213.53H448.853C450.593 213.53 452.22 212.677 453.203 211.246L517.482 118.236C519.508 114.74 516.99 110.299 512.885 110.299H511.517L448.087 200.82C447.091 202.24 445.463 203.088 443.729 203.088H263.711C257.863 203.088 253.08 207.735 252.863 213.53Z" fill="black"/>
<path d="M335.451 121.086C333.402 149.095 334.393 135.544 334.145 138.937L335.451 121.086Z" fill="white"/>
<path d="M333.829 139.202C333.683 139.028 333.705 138.767 333.881 138.621C334.048 138.48 350.702 124.438 351.255 117.69C351.733 111.816 340.582 118.212 335.677 121.432C335.488 121.556 335.231 121.505 335.105 121.313C334.98 121.123 335.033 120.867 335.223 120.742C341.25 116.788 352.662 110.61 352.077 117.757C351.498 124.847 335.108 138.668 334.41 139.253C334.237 139.399 333.976 139.378 333.829 139.202Z" fill="black"/>
<path d="M258.115 196.095C262.061 198.917 263.993 200.276 266.181 201.24C267.35 201.755 278.965 205.427 270.244 198.142C278.233 202.556 282.886 200.547 274.68 194.331C283.899 198.501 288.882 196.342 279.249 189.633C286.12 192.479 297.106 199.907 298.712 195.74C299.947 192.536 287.2 183.601 281.852 180.619C276.504 177.639 265.075 177.499 265.075 177.499L258.115 196.095Z" fill="white"/>
<path d="M266.015 201.617C263.803 200.643 261.921 199.323 257.877 196.431C257.725 196.324 257.665 196.126 257.73 195.951L264.688 177.354C264.749 177.193 264.902 177.086 265.075 177.086H265.079C265.551 177.092 276.675 177.262 282.052 180.26C286.24 182.594 300.575 192.052 299.096 195.889C297.587 199.822 289.215 195.007 285.192 192.954C284.223 192.458 283.276 191.976 282.365 191.525C284.481 193.402 285.284 194.902 284.7 195.931C283.938 197.274 280.965 197.155 276.999 195.723C279.052 197.63 279.826 199.17 279.187 200.153C278.417 201.332 275.861 201.134 272.606 199.756C273.757 200.983 274.108 201.838 273.737 202.436C272.835 203.893 267.324 202.194 266.015 201.617ZM258.614 195.944C262.433 198.674 264.257 199.941 266.347 200.863C267.887 201.539 272.593 202.715 273.037 202.001C273.052 201.975 273.401 201.316 269.98 198.459C269.816 198.323 269.784 198.085 269.904 197.909C270.023 197.735 270.26 197.678 270.444 197.782C274.907 200.247 277.988 200.483 278.495 199.703C278.812 199.214 278.313 197.601 274.43 194.66C274.263 194.534 274.218 194.3 274.325 194.12C274.431 193.94 274.66 193.871 274.85 193.955C280.291 196.417 283.514 196.346 283.984 195.524C284.376 194.832 283.311 192.964 279.014 189.971C278.841 189.851 278.787 189.62 278.889 189.435C278.99 189.25 279.215 189.172 279.407 189.252C281.258 190.019 283.352 191.087 285.568 192.219C288.633 193.784 297.18 198.56 298.328 195.592C299.357 192.919 287.956 184.495 281.651 180.98C276.924 178.345 267.161 177.965 265.357 177.917L258.614 195.944Z" fill="black"/>
<path d="M276.964 167.477L254.235 205.917C142.145 194.141 128.868 97.4995 128.868 97.4995L174.932 81.168C188.163 124.093 213.527 154.752 276.964 167.477Z" fill="#6680FF"/>
<path d="M272.296 166.915C241.987 160.224 219.346 148.904 203.073 132.305C202.915 132.142 202.918 131.881 203.079 131.722C203.241 131.561 203.502 131.565 203.663 131.728C219.819 148.207 242.327 159.455 272.472 166.11C272.696 166.158 272.837 166.379 272.787 166.601C272.74 166.816 272.528 166.964 272.296 166.915Z" fill="black"/>
<path d="M183.27 181.823C165.23 169.534 150.899 153.145 140.68 133.112C140.576 132.91 140.657 132.661 140.859 132.557C141.061 132.455 141.31 132.535 141.414 132.738C151.571 152.646 165.809 168.93 183.734 181.141C183.922 181.27 183.971 181.526 183.843 181.715C183.715 181.902 183.458 181.952 183.27 181.823Z" fill="black"/>
<path d="M454.82 146.391L441.619 166.425C440.936 167.462 439.777 168.085 438.535 168.085H346.521C343.58 168.085 341.82 164.816 343.438 162.36L356.638 142.328C357.321 141.29 358.48 140.666 359.722 140.666H451.735C454.677 140.666 456.438 143.936 454.82 146.391Z" fill="#FFA186"/>
<path d="M366.924 148.779L364.941 157.709L372.196 149.531C373.784 147.632 376.251 147.28 375.689 149.531L374.333 157.346H374.501C382.73 148.125 382.208 148.509 383.235 148.093C383.469 148.121 384.492 147.599 384.623 148.779L384.486 149.194C383.71 150.652 373.944 160.603 373.495 160.897C372.449 161.681 371.043 161.739 371.248 159.913L372.761 151.838H372.591L364.928 160.677C363.649 161.969 361.871 162.175 361.993 160.34C363.398 149.735 364.189 149.266 364.24 149.09C364.789 148.059 366.942 147.399 366.924 148.779Z" fill="white"/>
<path d="M389.49 148.779L387.508 157.709L394.762 149.531C395.623 148.503 396.486 147.988 397.355 147.988C398.213 147.988 398.514 148.503 398.257 149.531L396.899 157.346H397.069C405.226 148.205 404.782 148.506 405.802 148.093C406.038 148.121 407.058 147.599 407.19 148.779L407.053 149.194C406.271 150.658 396.506 160.606 396.063 160.897C395.017 161.679 393.611 161.739 393.816 159.913L395.327 151.838H395.158L387.494 160.677C386.216 161.969 384.437 162.175 384.56 160.34C385.965 149.736 386.75 149.28 386.804 149.09C387.354 148.065 389.509 147.386 389.49 148.779Z" fill="white"/>
<path d="M411.235 147.988C411.79 147.988 412.065 148.252 412.058 148.779L410.074 157.709L417.328 149.531C418.189 148.503 419.053 147.988 419.922 147.988C420.779 147.988 421.08 148.503 420.823 149.531L419.466 157.346H419.635C427.864 148.125 427.341 148.509 428.368 148.093C428.602 148.121 429.625 147.599 429.756 148.779L429.62 149.194C428.843 150.652 419.077 160.603 418.628 160.897C417.583 161.681 416.177 161.739 416.382 159.913L417.894 151.838H417.723L410.06 160.677C408.782 161.969 407.004 162.175 407.127 160.34C408.531 149.735 409.322 149.266 409.372 149.09C409.63 148.607 410.158 148.252 410.958 148.028L411.235 147.988Z" fill="white"/>
<path d="M428.928 158.383C430.507 158.383 429.952 159.973 429.966 160.093C429.189 161.548 427.233 161.733 427.115 161.779C425.927 161.563 425.577 161.001 426.061 160.093L426.074 160.067C426.875 158.571 428.81 158.427 428.928 158.383Z" fill="white"/>
<path d="M284.81 208.379C284.81 209.669 285.854 210.713 287.143 210.713H307.931C309.219 210.713 310.264 209.669 310.264 208.379C310.264 207.091 309.219 206.046 307.931 206.046H287.143C285.854 206.046 284.81 207.091 284.81 208.379Z" fill="black"/>
<path d="M275.783 206.046H271.937C270.648 206.046 269.604 207.091 269.604 208.379C269.604 209.669 270.648 210.713 271.937 210.713H275.783C277.072 210.713 278.117 209.669 278.117 208.379C278.117 207.091 277.072 206.046 275.783 206.046Z" fill="black"/>
<path d="M468.798 413.434H337.283V420.206H468.798V413.434Z" fill="white"/>
<path d="M468.798 420.619H337.283C337.055 420.619 336.871 420.434 336.871 420.206V413.433C336.871 413.206 337.055 413.021 337.283 413.021H468.798C469.026 413.021 469.21 413.206 469.21 413.433V420.206C469.21 420.434 469.026 420.619 468.798 420.619ZM337.695 419.794H468.386V413.846H337.695V419.794Z" fill="black"/>
<path d="M478.402 391.595V409.446C478.402 411.649 476.616 413.433 474.415 413.433H331.666C329.463 413.433 327.679 411.649 327.679 409.446V391.595C327.679 389.394 329.463 387.608 331.666 387.608H474.415C476.616 387.608 478.402 389.394 478.402 391.595Z" fill="white"/>
<path d="M474.415 413.846H331.666C329.24 413.846 327.267 411.873 327.267 409.447V391.595C327.267 389.17 329.24 387.196 331.666 387.196H474.415C476.841 387.196 478.813 389.17 478.813 391.595V409.447C478.813 411.873 476.841 413.846 474.415 413.846ZM331.666 388.021C329.696 388.021 328.092 389.625 328.092 391.595V409.447C328.092 411.418 329.696 413.021 331.666 413.021H474.415C476.385 413.021 477.989 411.418 477.989 409.447V391.595C477.989 389.625 476.385 388.021 474.415 388.021H331.666Z" fill="black"/>
<path d="M364.207 400.521C364.207 403.323 361.926 405.592 359.123 405.592C356.321 405.592 354.052 403.323 354.052 400.521C354.052 397.718 356.321 395.449 359.123 395.449C361.926 395.449 364.207 397.718 364.207 400.521Z" fill="#FFC176"/>
<path d="M372.704 400.933H370.774C370.546 400.933 370.362 400.749 370.362 400.521C370.362 400.293 370.546 400.108 370.774 400.108H372.704C372.933 400.108 373.117 400.293 373.117 400.521C373.117 400.749 372.933 400.933 372.704 400.933Z" fill="black"/>
<path d="M380.527 400.933H378.597C378.369 400.933 378.186 400.749 378.186 400.521C378.186 400.293 378.369 400.108 378.597 400.108H380.527C380.755 400.108 380.939 400.293 380.939 400.521C380.939 400.749 380.755 400.933 380.527 400.933Z" fill="black"/>
<path d="M388.351 400.933H386.421C386.194 400.933 386.009 400.749 386.009 400.521C386.009 400.293 386.194 400.108 386.421 400.108H388.351C388.578 400.108 388.762 400.293 388.762 400.521C388.762 400.749 388.578 400.933 388.351 400.933Z" fill="black"/>
<path d="M396.174 400.933H394.245C394.016 400.933 393.832 400.749 393.832 400.521C393.832 400.293 394.016 400.108 394.245 400.108H396.174C396.403 400.108 396.587 400.293 396.587 400.521C396.587 400.749 396.403 400.933 396.174 400.933Z" fill="black"/>
<path d="M403.997 400.933H402.067C401.839 400.933 401.656 400.749 401.656 400.521C401.656 400.293 401.839 400.108 402.067 400.108H403.997C404.225 400.108 404.41 400.293 404.41 400.521C404.41 400.749 404.225 400.933 403.997 400.933Z" fill="black"/>
<path d="M411.821 400.933H409.89C409.663 400.933 409.478 400.749 409.478 400.521C409.478 400.293 409.663 400.108 409.89 400.108H411.821C412.048 400.108 412.232 400.293 412.232 400.521C412.232 400.749 412.048 400.933 411.821 400.933Z" fill="black"/>
<path d="M419.643 400.933H417.714C417.485 400.933 417.301 400.749 417.301 400.521C417.301 400.293 417.485 400.108 417.714 400.108H419.643C419.872 400.108 420.056 400.293 420.056 400.521C420.056 400.749 419.872 400.933 419.643 400.933Z" fill="black"/>
<path d="M347.437 400.521C347.437 403.323 345.157 405.592 342.355 405.592C339.551 405.592 337.283 403.323 337.283 400.521C337.283 397.718 339.551 395.449 342.355 395.449C345.157 395.449 347.437 397.718 347.437 400.521Z" fill="#6680FF"/>
<path d="M478.402 424.194V442.045C478.402 444.247 476.616 446.031 474.415 446.031H331.666C329.463 446.031 327.679 444.247 327.679 442.045V424.194C327.679 421.992 329.463 420.206 331.666 420.206H474.415C476.616 420.206 478.402 421.992 478.402 424.194Z" fill="white"/>
<path d="M474.415 446.445H331.666C329.24 446.445 327.267 444.471 327.267 442.044V424.194C327.267 421.768 329.24 419.794 331.666 419.794H474.415C476.841 419.794 478.813 421.768 478.813 424.194V442.044C478.813 444.471 476.841 446.445 474.415 446.445ZM331.666 420.619C329.696 420.619 328.092 422.223 328.092 424.194V442.044C328.092 444.016 329.696 445.619 331.666 445.619H474.415C476.385 445.619 477.989 444.016 477.989 442.044V424.194C477.989 422.223 476.385 420.619 474.415 420.619H331.666Z" fill="black"/>
<path d="M364.207 433.119C364.207 435.923 361.926 438.19 359.123 438.19C356.321 438.19 354.052 435.923 354.052 433.119C354.052 430.316 356.321 428.049 359.123 428.049C361.926 428.049 364.207 430.316 364.207 433.119Z" fill="#FFC176"/>
<path d="M372.704 433.533H370.774C370.546 433.533 370.362 433.348 370.362 433.12C370.362 432.891 370.546 432.706 370.774 432.706H372.704C372.933 432.706 373.117 432.891 373.117 433.12C373.117 433.348 372.933 433.533 372.704 433.533Z" fill="black"/>
<path d="M380.527 433.533H378.597C378.369 433.533 378.186 433.348 378.186 433.12C378.186 432.891 378.369 432.706 378.597 432.706H380.527C380.755 432.706 380.939 432.891 380.939 433.12C380.939 433.348 380.755 433.533 380.527 433.533Z" fill="black"/>
<path d="M388.351 433.533H386.421C386.194 433.533 386.009 433.348 386.009 433.12C386.009 432.891 386.194 432.706 386.421 432.706H388.351C388.578 432.706 388.762 432.891 388.762 433.12C388.762 433.348 388.578 433.533 388.351 433.533Z" fill="black"/>
<path d="M396.174 433.533H394.245C394.016 433.533 393.832 433.348 393.832 433.12C393.832 432.891 394.016 432.706 394.245 432.706H396.174C396.403 432.706 396.587 432.891 396.587 433.12C396.587 433.348 396.403 433.533 396.174 433.533Z" fill="black"/>
<path d="M403.997 433.533H402.067C401.839 433.533 401.656 433.348 401.656 433.12C401.656 432.891 401.839 432.706 402.067 432.706H403.997C404.225 432.706 404.41 432.891 404.41 433.12C404.41 433.348 404.225 433.533 403.997 433.533Z" fill="black"/>
<path d="M411.821 433.533H409.89C409.663 433.533 409.478 433.348 409.478 433.12C409.478 432.891 409.663 432.706 409.89 432.706H411.821C412.048 432.706 412.232 432.891 412.232 433.12C412.232 433.348 412.048 433.533 411.821 433.533Z" fill="black"/>
<path d="M419.643 433.533H417.714C417.485 433.533 417.301 433.348 417.301 433.12C417.301 432.891 417.485 432.706 417.714 432.706H419.643C419.872 432.706 420.056 432.891 420.056 433.12C420.056 433.348 419.872 433.533 419.643 433.533Z" fill="black"/>
<path d="M347.437 433.119C347.437 435.923 345.157 438.19 342.355 438.19C339.551 438.19 337.283 435.923 337.283 433.119C337.283 430.316 339.551 428.049 342.355 428.049C345.157 428.049 347.437 430.316 347.437 433.119Z" fill="#6680FF"/>
<path d="M468.798 348.238H337.283V355.01H468.798V348.238Z" fill="white"/>
<path d="M468.798 355.423H337.283C337.055 355.423 336.871 355.238 336.871 355.01V348.238C336.871 348.01 337.055 347.824 337.283 347.824H468.798C469.026 347.824 469.21 348.01 469.21 348.238V355.01C469.21 355.238 469.026 355.423 468.798 355.423ZM337.695 354.598H468.386V348.651H337.695V354.598Z" fill="black"/>
<path d="M478.402 326.399V344.25C478.402 346.453 476.616 348.237 474.415 348.237H331.666C329.463 348.237 327.679 346.453 327.679 344.25V326.399C327.679 324.198 329.463 322.412 331.666 322.412H474.415C476.616 322.412 478.402 324.198 478.402 326.399Z" fill="white"/>
<path d="M474.415 348.651H331.666C329.24 348.651 327.267 346.677 327.267 344.25V326.399C327.267 323.974 329.24 322 331.666 322H474.415C476.841 322 478.813 323.974 478.813 326.399V344.25C478.813 346.677 476.841 348.651 474.415 348.651ZM331.666 322.825C329.696 322.825 328.092 324.428 328.092 326.399V344.25C328.092 346.222 329.696 347.825 331.666 347.825H474.415C476.385 347.825 477.989 346.222 477.989 344.25V326.399C477.989 324.428 476.385 322.825 474.415 322.825H331.666Z" fill="black"/>
<path d="M364.207 335.325C364.207 338.127 361.926 340.396 359.123 340.396C356.321 340.396 354.052 338.127 354.052 335.325C354.052 332.522 356.321 330.253 359.123 330.253C361.926 330.253 364.207 332.522 364.207 335.325Z" fill="#FFC176"/>
<path d="M372.704 335.737H370.774C370.546 335.737 370.362 335.552 370.362 335.325C370.362 335.097 370.546 334.912 370.774 334.912H372.704C372.933 334.912 373.117 335.097 373.117 335.325C373.117 335.552 372.933 335.737 372.704 335.737Z" fill="black"/>
<path d="M380.527 335.737H378.597C378.369 335.737 378.186 335.552 378.186 335.325C378.186 335.097 378.369 334.912 378.597 334.912H380.527C380.755 334.912 380.939 335.097 380.939 335.325C380.939 335.552 380.755 335.737 380.527 335.737Z" fill="black"/>
<path d="M388.351 335.737H386.421C386.194 335.737 386.009 335.552 386.009 335.325C386.009 335.097 386.194 334.912 386.421 334.912H388.351C388.578 334.912 388.762 335.097 388.762 335.325C388.762 335.552 388.578 335.737 388.351 335.737Z" fill="black"/>
<path d="M396.174 335.737H394.245C394.016 335.737 393.832 335.552 393.832 335.325C393.832 335.097 394.016 334.912 394.245 334.912H396.174C396.403 334.912 396.587 335.097 396.587 335.325C396.587 335.552 396.403 335.737 396.174 335.737Z" fill="black"/>
<path d="M403.997 335.737H402.067C401.839 335.737 401.656 335.552 401.656 335.325C401.656 335.097 401.839 334.912 402.067 334.912H403.997C404.225 334.912 404.41 335.097 404.41 335.325C404.41 335.552 404.225 335.737 403.997 335.737Z" fill="black"/>
<path d="M411.821 335.737H409.89C409.663 335.737 409.478 335.552 409.478 335.325C409.478 335.097 409.663 334.912 409.89 334.912H411.821C412.048 334.912 412.232 335.097 412.232 335.325C412.232 335.552 412.048 335.737 411.821 335.737Z" fill="black"/>
<path d="M419.643 335.737H417.714C417.485 335.737 417.301 335.552 417.301 335.325C417.301 335.097 417.485 334.912 417.714 334.912H419.643C419.872 334.912 420.056 335.097 420.056 335.325C420.056 335.552 419.872 335.737 419.643 335.737Z" fill="black"/>
<path d="M347.437 335.325C347.437 338.127 345.157 340.396 342.355 340.396C339.551 340.396 337.283 338.127 337.283 335.325C337.283 332.522 339.551 330.253 342.355 330.253C345.157 330.253 347.437 332.522 347.437 335.325Z" fill="#6680FF"/>
<path d="M478.402 358.997V376.849C478.402 379.051 476.616 380.835 474.415 380.835H331.666C329.463 380.835 327.679 379.051 327.679 376.849V358.997C327.679 356.796 329.463 355.01 331.666 355.01H474.415C476.616 355.01 478.402 356.796 478.402 358.997Z" fill="white"/>
<path d="M474.415 381.248H331.666C329.24 381.248 327.267 379.275 327.267 376.848V358.997C327.267 356.572 329.24 354.598 331.666 354.598H474.415C476.841 354.598 478.813 356.572 478.813 358.997V376.848C478.813 379.275 476.841 381.248 474.415 381.248ZM331.666 355.423C329.696 355.423 328.092 357.027 328.092 358.997V376.848C328.092 378.82 329.696 380.423 331.666 380.423H474.415C476.385 380.423 477.989 378.82 477.989 376.848V358.997C477.989 357.027 476.385 355.423 474.415 355.423H331.666Z" fill="black"/>
<path d="M364.207 367.923C364.207 370.727 361.926 372.994 359.123 372.994C356.321 372.994 354.052 370.727 354.052 367.923C354.052 365.12 356.321 362.852 359.123 362.852C361.926 362.852 364.207 365.12 364.207 367.923Z" fill="#FFC176"/>
<path d="M372.704 368.335H370.774C370.546 368.335 370.362 368.151 370.362 367.923C370.362 367.695 370.546 367.51 370.774 367.51H372.704C372.933 367.51 373.117 367.695 373.117 367.923C373.117 368.151 372.933 368.335 372.704 368.335Z" fill="black"/>
<path d="M380.527 368.335H378.597C378.369 368.335 378.186 368.151 378.186 367.923C378.186 367.695 378.369 367.51 378.597 367.51H380.527C380.755 367.51 380.939 367.695 380.939 367.923C380.939 368.151 380.755 368.335 380.527 368.335Z" fill="black"/>
<path d="M388.351 368.335H386.421C386.194 368.335 386.009 368.151 386.009 367.923C386.009 367.695 386.194 367.51 386.421 367.51H388.351C388.578 367.51 388.762 367.695 388.762 367.923C388.762 368.151 388.578 368.335 388.351 368.335Z" fill="black"/>
<path d="M396.174 368.335H394.245C394.016 368.335 393.832 368.151 393.832 367.923C393.832 367.695 394.016 367.51 394.245 367.51H396.174C396.403 367.51 396.587 367.695 396.587 367.923C396.587 368.151 396.403 368.335 396.174 368.335Z" fill="black"/>
<path d="M403.997 368.335H402.067C401.839 368.335 401.656 368.151 401.656 367.923C401.656 367.695 401.839 367.51 402.067 367.51H403.997C404.225 367.51 404.41 367.695 404.41 367.923C404.41 368.151 404.225 368.335 403.997 368.335Z" fill="black"/>
<path d="M411.821 368.335H409.89C409.663 368.335 409.478 368.151 409.478 367.923C409.478 367.695 409.663 367.51 409.89 367.51H411.821C412.048 367.51 412.232 367.695 412.232 367.923C412.232 368.151 412.048 368.335 411.821 368.335Z" fill="black"/>
<path d="M419.643 368.335H417.714C417.485 368.335 417.301 368.151 417.301 367.923C417.301 367.695 417.485 367.51 417.714 367.51H419.643C419.872 367.51 420.056 367.695 420.056 367.923C420.056 368.151 419.872 368.335 419.643 368.335Z" fill="black"/>
<path d="M347.437 367.923C347.437 370.727 345.157 372.994 342.355 372.994C339.551 372.994 337.283 370.727 337.283 367.923C337.283 365.12 339.551 362.852 342.355 362.852C345.157 362.852 347.437 365.12 347.437 367.923Z" fill="#6680FF"/>
<path d="M468.798 380.835H337.283V387.607H468.798V380.835Z" fill="white"/>
<path d="M468.798 388.021H337.283C337.055 388.021 336.871 387.836 336.871 387.608V380.835C336.871 380.608 337.055 380.423 337.283 380.423H468.798C469.026 380.423 469.21 380.608 469.21 380.835V387.608C469.21 387.836 469.026 388.021 468.798 388.021ZM337.695 387.196H468.386V381.248H337.695V387.196Z" fill="black"/>
<path d="M500.228 158.145C500.001 158.138 499.821 157.95 499.827 157.721C499.833 157.497 500.017 157.319 500.24 157.319H500.251C514.852 157.715 529.232 155.407 542.986 150.481C557.615 145.243 565.557 136.225 559.379 117.523C547.054 80.2299 509.991 80.4173 500.894 79.175C496.202 78.5363 490.353 77.4449 485.058 74.6682C475.144 79.3212 463.389 80.3147 452.946 77.1479C443.564 74.3028 435.904 68.3581 431.928 60.8412C427.411 52.2942 428.003 41.8721 433.4 34.9055C433.538 34.7252 433.798 34.6922 433.979 34.8325C434.159 34.9715 434.192 35.2308 434.052 35.4112C428.85 42.1255 428.289 52.1905 432.658 60.4546C436.531 67.7794 444.014 73.5769 453.185 76.3583C463.241 79.4084 474.544 78.5268 484.158 74.1756C476.632 69.8973 472.879 63.0251 472.847 57.0132C472.714 33.4052 504.997 28.5224 503.54 52.1846C502.939 61.8642 494.846 69.8007 485.989 74.218C491.029 76.7307 496.546 77.7502 501.004 78.3583C510.169 79.6076 547.676 79.4838 560.162 117.265C566.539 136.559 558.138 145.932 543.265 151.258C529.58 156.158 515.11 158.539 500.228 158.145ZM473.671 57.0097C473.703 62.8742 477.458 69.6133 485.081 73.7442C493.818 69.5426 502.119 61.7463 502.716 52.1339C504.11 29.6008 473.554 34.5449 473.671 57.0097Z" fill="black"/>
<path d="M118.192 356.726C113.996 360.179 109.835 363.55 105.758 366.791L86.9829 322.406L118.192 356.726Z" fill="black"/>
<path d="M105.378 366.952L86.6035 322.567C86.4243 322.141 86.9771 321.787 87.2882 322.129L118.497 356.449C118.661 356.63 118.629 356.902 118.454 357.044C114.181 360.562 109.996 363.951 106.015 367.114C105.802 367.284 105.485 367.205 105.378 366.952ZM88.3065 324.473L105.926 366.13C109.67 363.149 113.594 359.974 117.594 356.684L88.3065 324.473Z" fill="black"/>
<path d="M182.07 295.358C180.361 297.633 178.452 299.99 176.389 302.394L127.255 233.129L182.07 295.358Z" fill="black"/>
<path d="M176.389 302.807C176.383 302.807 176.376 302.807 176.371 302.807C176.243 302.801 176.127 302.737 176.053 302.633L126.919 233.369C126.792 233.19 126.827 232.942 127 232.807C127.169 232.67 127.417 232.691 127.565 232.857L182.38 295.086C182.509 295.232 182.518 295.45 182.4 295.607C180.732 297.826 178.815 300.2 176.703 302.663C176.624 302.755 176.508 302.807 176.389 302.807ZM132.127 239.284L176.419 301.724C178.302 299.516 180.021 297.385 181.539 295.378L132.127 239.284Z" fill="black"/>
<path d="M168.559 412.081C168.35 412.081 168.17 411.922 168.149 411.71C168.126 411.483 168.293 411.281 168.518 411.259L236.554 404.484C236.812 404.448 236.982 404.628 237.006 404.854C237.028 405.081 236.862 405.282 236.637 405.305L168.6 412.079C168.586 412.08 168.572 412.081 168.559 412.081Z" fill="black"/>
<path d="M64.8647 384.492L28.3172 342.444C28.1687 342.272 28.1864 342.012 28.3584 341.862C28.5305 341.714 28.791 341.731 28.9407 341.903L65.4882 383.951C65.6367 384.123 65.6202 384.384 65.4469 384.533C65.2725 384.684 65.0132 384.663 64.8647 384.492Z" fill="black"/>
<path d="M236.651 36.2621C241.134 38.7583 241.261 45.1815 228.604 58.7339C215.946 72.2875 221.417 31.424 221.417 31.424C221.417 31.424 233.16 34.3174 236.651 36.2621Z" fill="black"/>
<path d="M199.704 51.0202C199.235 52.8281 199.107 54.5995 199.289 56.2919L195.031 69.6463L202.224 84.6436L209.095 77.3695L210.978 68.3287C210.92 68.3016 210.881 68.3204 210.983 68.318C216.827 69.0358 223.268 66.6292 227.191 62.3368C228.676 63.0852 229.328 63.6969 230.711 64.3852C231.386 64.7222 230.77 59.1841 230.755 56.5689C230.942 56.0197 231.135 55.4598 231.274 54.8753C233.483 46.3294 228.201 38.552 219.465 37.489C210.767 36.4306 201.897 42.4802 199.704 51.0202Z" fill="white"/>
<path d="M201.851 84.8216L194.66 69.8243C194.614 69.7288 194.607 69.6204 194.638 69.5202L198.869 56.2483C198.694 54.5028 198.84 52.7102 199.304 50.9176C201.544 42.2021 210.616 36.0004 219.516 37.08C228.52 38.1761 233.941 46.201 231.674 54.9778C231.537 55.5541 231.347 56.1092 231.163 56.6455C231.184 58.6797 231.607 62.9437 231.359 64.1541C231.234 64.7717 230.851 64.9155 230.526 64.7552C229.207 64.0976 228.567 63.5295 227.28 62.8471C223.341 66.9921 217.001 69.3363 211.307 68.7694L209.499 77.4531C209.482 77.5286 209.447 77.5969 209.395 77.6523L202.524 84.9265C202.32 85.1398 201.975 85.0785 201.851 84.8216ZM195.474 69.6156L202.337 83.9235L208.715 77.1703L210.546 68.377C210.541 68.3534 210.54 68.3287 210.541 68.3039C210.554 68.0116 210.755 67.8631 211.017 67.9079C216.687 68.6021 223.056 66.252 226.886 62.0586C227.011 61.9207 227.212 61.8842 227.377 61.9691C228.799 62.6857 229.4 63.2266 230.578 63.8536C230.724 62.6821 230.353 58.4063 230.342 56.5712C230.337 56.3897 230.638 55.7639 230.872 54.7798C233.026 46.4532 227.901 38.9315 219.417 37.8991C210.891 36.8514 202.24 42.7961 200.103 51.1227C199.656 52.8481 199.52 54.5735 199.698 56.2483C199.717 56.405 199.951 55.5305 195.474 69.6156Z" fill="black"/>
<path d="M199.566 54.9931C191.573 51.3136 188.221 41.5704 192.545 33.9073C196.506 26.8865 211.712 23.7233 220.46 26.3691C238.215 31.7399 226.112 39.9769 226.112 39.9769C229.848 43.04 214.213 53.2736 199.566 54.9931Z" fill="black"/>
<path d="M207.98 53.4775C208.352 50.9754 206.606 48.6253 204.1 48.267C201.585 47.891 199.235 49.6365 198.876 52.1421C198.501 54.6572 200.246 57.0085 202.766 57.3715" fill="white"/>
<path d="M202.707 57.7793C199.961 57.3833 198.057 54.8269 198.469 52.082C198.857 49.3595 201.403 47.4502 204.16 47.858C206.891 48.2493 208.794 50.8045 208.389 53.5376C208.356 53.7627 208.157 53.9194 207.92 53.8853C207.695 53.8522 207.539 53.6425 207.572 53.4174C207.908 51.1651 206.347 49.0048 204.041 48.6748C201.748 48.3306 199.61 49.9217 199.285 52.2011C198.94 54.4934 200.529 56.6313 202.825 56.9625C203.05 56.9955 203.207 57.2041 203.174 57.4292C203.142 57.6555 202.932 57.8123 202.707 57.7793Z" fill="black"/>
<path d="M222.725 56.081C222.628 56.8741 223.196 57.6001 223.98 57.6956C224.773 57.7922 225.499 57.223 225.596 56.431C225.693 55.6378 225.123 54.9212 224.33 54.8246C223.546 54.7291 222.822 55.2878 222.725 56.081Z" fill="black"/>
<path d="M228.059 50.4969C226.931 48.7667 224.612 48.2788 222.883 49.4067L228.059 50.4969Z" fill="#FBFBFB"/>
<path d="M227.715 50.722C226.707 49.178 224.644 48.7514 223.109 49.752C222.916 49.8769 222.664 49.8227 222.538 49.6318C222.414 49.4409 222.467 49.1851 222.658 49.0614C224.575 47.8085 227.152 48.3471 228.406 50.2706C228.529 50.4615 228.476 50.7173 228.285 50.8422C228.092 50.9671 227.84 50.9129 227.715 50.722Z" fill="black"/>
<path d="M219.027 61.1606C219.027 61.1606 216.646 61.5212 215.466 58.8034L219.027 61.1606Z" fill="#FBFBFB"/>
<path d="M218.779 61.586C218.033 61.586 216.118 61.3409 215.088 58.9673C214.997 58.7586 215.094 58.5159 215.301 58.4251C215.511 58.3355 215.752 58.4298 215.844 58.6396C216.876 61.0144 218.884 60.7646 218.966 60.7528C219.192 60.7233 219.4 60.8765 219.433 61.1017C219.496 61.5365 219.104 61.586 218.779 61.586Z" fill="black"/>
<path d="M210.978 68.3287C210.978 68.3287 208.406 67.6922 205.942 65.0381C206.919 67.7394 208.377 69.9021 210.221 71.6287C210.398 70.8591 211.016 68.1613 210.978 68.3287Z" fill="black"/>
<path d="M209.94 71.9304C207.989 70.1048 206.514 67.8336 205.554 65.1783C205.402 64.7576 205.94 64.4299 206.245 64.7576C208.587 67.2785 211.052 67.9221 211.077 67.9279C211.294 67.9822 211.428 68.2002 211.38 68.4194L210.623 71.7206C210.554 72.0317 210.171 72.1472 209.94 71.9304ZM207.075 66.6586C207.836 68.219 208.811 69.6121 209.985 70.8178L210.49 68.6091C209.86 68.3911 208.538 67.8395 207.075 66.6586Z" fill="black"/>
<path d="M204.437 28.9868C205.863 28.5142 206.901 27.2295 207.445 25.8294C207.988 24.4292 208.109 22.9065 208.225 21.4086C208.751 14.5882 215.498 4.73413 209.801 0.945025C206.165 -1.47222 202.03 4.93094 198.145 6.92509C190.005 11.0996 175.911 8.10956 172.625 16.6448C170.804 21.3732 179.557 24.0592 183.62 27.0857C186.767 29.4311 189.925 31.3757 199.177 37.2969" fill="black"/>
<path d="M214.196 24.3243C211.27 23.8765 208.507 23.4534 205.967 24.54C205.758 24.6296 205.515 24.5329 205.426 24.3232C205.335 24.1134 205.432 23.8718 205.642 23.7822C208.398 22.6013 211.408 23.0621 214.319 23.5087C219.168 24.2536 224.047 24.4834 228.974 20.2747C231.844 17.8245 233.773 14.2735 234.268 10.5303C234.298 10.3052 234.5 10.1437 234.731 10.1756C234.956 10.2062 235.115 10.4125 235.086 10.6388C234.565 14.5811 232.533 18.3207 229.51 20.9018C224.026 25.5842 218.487 24.9831 214.196 24.3243Z" fill="black"/>
<path d="M164.363 54.2223C163.849 52.8776 164.249 51.2052 165.382 49.963C167.47 47.673 172.38 46.7313 175.571 46.0607C179.996 45.1332 185.054 44.0336 188.18 40.4189C190.925 37.245 191.588 32.6368 192.122 28.9349C192.156 28.7098 192.367 28.5507 192.59 28.586C192.815 28.6179 192.972 28.8277 192.94 29.0528C192.39 32.8607 191.707 37.6009 188.803 40.9587C185.512 44.7643 180.208 45.9311 175.74 46.8692C172.933 47.4573 167.923 48.399 165.992 50.5192C165.234 51.349 164.674 52.7267 165.134 53.9289C165.214 54.141 165.109 54.3803 164.896 54.4616C164.685 54.5417 164.446 54.4368 164.363 54.2223Z" fill="black"/>
<path d="M238.586 182.668C235.498 175.674 229.919 169.861 223.278 166.722C216.61 163.569 208.952 162.838 201.707 161.716C184.711 159.082 178.78 154.331 172.464 143.097C166.937 133.273 163.182 122.656 161.3 111.542C161.262 111.317 161.413 111.104 161.637 111.066C161.872 111.028 162.076 111.179 162.113 111.403C163.98 122.424 167.704 132.952 173.181 142.694C179.359 153.673 185.051 158.301 201.835 160.901C209.197 162.04 216.858 162.773 223.63 165.976C230.448 169.199 236.174 175.161 239.342 182.334C239.434 182.543 239.339 182.787 239.131 182.879C238.918 182.972 238.677 182.873 238.586 182.668Z" fill="white"/>
<path d="M130.587 195.653C130.367 195.588 130.245 195.357 130.31 195.139C136.286 175.299 129.757 165.175 109.733 159.854C108.485 159.522 107.221 159.205 105.956 158.888C79.4224 152.228 72.8884 137.408 77.7017 120.44C80.4902 110.616 88.0543 101.558 98.4552 95.5914C106.684 90.87 116.661 87.8175 129.851 85.9825C130.074 85.9483 130.285 86.1086 130.315 86.3337C130.346 86.56 130.189 86.7686 129.963 86.7992C116.883 88.6189 107.001 91.6408 98.8653 96.3079C88.6495 102.168 81.2256 111.046 78.4961 120.665C73.7063 137.544 80.4784 151.645 106.157 158.087C107.426 158.406 108.692 158.724 109.945 159.056C130.405 164.494 137.216 175.079 131.099 195.377C131.032 195.598 130.8 195.719 130.587 195.653Z" fill="white"/>
<path d="M75.8949 279.725C75.6852 279.637 75.585 279.397 75.6722 279.186L97.4157 226.844C97.5017 226.633 97.7457 226.534 97.9543 226.621C98.1652 226.709 98.2654 226.95 98.1782 227.161L76.4335 279.503C76.3463 279.715 76.1012 279.812 75.8949 279.725Z" fill="black"/>
<path d="M86.8262 287.564C86.6152 287.476 86.5151 287.235 86.6023 287.024L100.104 254.524C100.191 254.313 100.438 254.215 100.643 254.301C100.854 254.389 100.954 254.63 100.867 254.84L87.3648 287.341C87.2764 287.554 87.0325 287.65 86.8262 287.564Z" fill="black"/>
<path d="M159.054 376.058C158.843 375.971 158.743 375.729 158.83 375.52L175.471 335.462C175.559 335.251 175.806 335.155 176.01 335.24C176.22 335.327 176.32 335.569 176.233 335.779L159.592 375.836C159.504 376.048 159.26 376.146 159.054 376.058Z" fill="black"/>
<path d="M167.419 382.057C167.208 381.97 167.108 381.728 167.195 381.517L177.528 356.645C177.615 356.434 177.863 356.336 178.066 356.422C178.276 356.511 178.376 356.751 178.289 356.962L167.958 381.835C167.869 382.047 167.626 382.145 167.419 382.057Z" fill="black"/>
<path d="M308.479 299.614C308.425 299.393 308.559 299.17 308.781 299.114C313.873 297.853 316.981 292.712 315.719 287.616C314.453 282.508 309.302 279.42 304.215 280.68C303.985 280.734 303.771 280.599 303.715 280.378C303.661 280.157 303.795 279.933 304.017 279.879C309.554 278.507 315.147 281.878 316.519 287.418C317.891 292.953 314.518 298.544 308.979 299.916C308.752 299.97 308.533 299.832 308.479 299.614Z" fill="black"/>
<path d="M552.628 270.452C552.443 270.452 552.275 270.328 552.228 270.139C552.174 269.917 552.309 269.693 552.529 269.639C557.614 268.381 560.725 263.222 559.468 258.141C558.208 253.058 553.047 249.943 547.964 251.205C547.734 251.258 547.519 251.124 547.464 250.904C547.411 250.683 547.545 250.459 547.765 250.404C553.295 249.034 558.901 252.418 560.269 257.943C561.636 263.466 558.254 269.072 552.727 270.441C552.694 270.449 552.661 270.452 552.628 270.452Z" fill="black"/>
<path d="M334.007 75.7878C333.811 75.67 333.75 75.4154 333.869 75.2209C336.594 70.7483 335.174 64.8931 330.703 62.1695C326.219 59.4387 320.381 60.8553 317.649 65.3398C317.532 65.5343 317.276 65.5956 317.084 65.4777C316.888 65.3587 316.827 65.1053 316.946 64.9108C319.91 60.0457 326.249 58.49 331.132 61.4658C335.992 64.4252 337.534 70.7895 334.574 75.6499C334.456 75.8456 334.2 75.9069 334.007 75.7878Z" fill="black"/>
<path d="M256.009 166.256L237.951 203.34L239.009 203.855L257.067 166.772L256.009 166.256Z" fill="black"/>
<path d="M262.661 177.913C260.744 177.913 259.185 176.348 259.185 174.425C259.185 172.508 260.744 170.948 262.661 170.948C264.578 170.948 266.138 172.508 266.138 174.425C266.138 176.348 264.578 177.913 262.661 177.913ZM262.661 171.773C261.199 171.773 260.009 172.962 260.009 174.425C260.009 175.895 261.199 177.088 262.661 177.088C264.123 177.088 265.314 175.895 265.314 174.425C265.314 172.962 264.123 171.773 262.661 171.773Z" fill="white"/>
<path d="M315.752 114.483L314.574 114.512L315.381 147.002L316.56 146.973L315.752 114.483Z" fill="black"/>
</svg>
