<svg width="685" height="556" viewBox="0 0 685 556" fill="none" xmlns="http://www.w3.org/2000/svg">
<path d="M97.3214 409.563C66.9338 366.517 154.579 223.27 96.2711 251.939C37.4552 280.857 58.9918 362.37 89.9073 409.563H97.3214Z" fill="#75C675"/>
<path d="M84.6872 409.665C70.5595 345.587 75.6934 310.214 82.487 291.823C89.8946 271.772 100.552 267.039 101.002 266.848C101.238 266.747 101.516 266.857 101.617 267.096C101.72 267.334 101.61 267.61 101.371 267.713C101.263 267.759 90.5742 272.54 83.3201 292.282C76.6053 310.557 71.5514 345.721 85.6056 409.462C85.6621 409.716 85.5007 409.967 85.2475 410.023C84.994 410.079 84.7433 409.918 84.6872 409.665Z" fill="black"/>
<path d="M137.884 417.058L124.924 487.039L124.166 491.135C123.604 494.149 120.985 496.325 117.932 496.325H65.4314C62.3686 496.325 59.749 494.149 59.1975 491.135L45.479 417.058C44.7502 413.158 47.7441 409.563 51.7129 409.563H131.65C135.619 409.563 138.603 413.158 137.884 417.058Z" fill="white"/>
<path d="M124.924 487.039L124.166 491.135C123.604 494.149 120.985 496.325 117.932 496.325H65.4314C62.3686 496.325 59.749 494.149 59.1975 491.135L45.479 417.058C44.7502 413.158 47.7441 409.563 51.7129 409.563H65.9337C67.7458 413.69 68.7207 418.496 69.479 422.356C72.8678 439.656 67.6078 449.243 71.3699 460.252C77.3851 477.836 99.7884 480.809 112.909 483.681C116.957 484.557 121.034 485.601 124.924 487.039Z" fill="#CAD5FF"/>
<path d="M117.932 496.997H65.431C62.0447 496.997 59.1452 494.583 58.5364 491.256L44.8193 417.18C44.012 412.871 47.3215 408.892 51.7126 408.892H131.651C136.036 408.892 139.34 412.866 138.545 417.18C138.544 417.18 138.544 417.18 138.544 417.18L124.826 491.258C124.206 494.584 121.307 496.997 117.932 496.997ZM51.7126 410.235C48.1673 410.235 45.4878 413.444 46.1392 416.934L59.8576 491.013C60.3496 493.703 62.6941 495.654 65.431 495.654H117.932C120.66 495.654 123.005 493.702 123.506 491.012L137.224 416.935C137.865 413.446 135.197 410.235 131.651 410.235H51.7126Z" fill="black"/>
<path d="M378.396 205.446C378.396 205.446 345.28 198.62 335.833 189.014C326.385 179.408 328.044 218.522 374.121 223.389" fill="white"/>
<path d="M374.122 223.859C374.106 223.859 374.089 223.859 374.072 223.857C343.969 220.677 332.753 202.766 331.029 193.739C330.403 190.471 330.885 187.984 332.284 187.251C333.027 186.861 334.305 186.79 336.168 188.685C345.407 198.079 378.161 204.917 378.491 204.985C378.745 205.038 378.909 205.286 378.857 205.541C378.804 205.795 378.552 205.958 378.302 205.906C376.944 205.626 344.936 198.941 335.496 189.344C334.377 188.205 333.366 187.746 332.721 188.083C331.9 188.514 331.342 190.376 331.952 193.562C333.632 202.352 344.617 219.8 374.172 222.922C374.429 222.949 374.616 223.18 374.589 223.439C374.564 223.68 374.359 223.859 374.122 223.859Z" fill="black"/>
<path d="M566.913 191.871C561.081 192.319 557.887 198.91 564.534 218.978C571.182 239.045 584.995 194.123 584.995 194.123C584.995 194.123 571.455 191.523 566.913 191.871Z" fill="black"/>
<path d="M663.273 497.181H428.599C428.339 497.181 428.129 496.97 428.129 496.711C428.129 496.451 428.339 496.24 428.599 496.24H663.273C663.533 496.24 663.743 496.451 663.743 496.711C663.743 496.97 663.533 497.181 663.273 497.181Z" fill="black"/>
<path d="M649.471 344.659C637.904 390.781 616.73 440.209 616.73 440.209C616.73 440.209 612.337 413.903 594.993 411.337C593.071 411.055 590.989 411.068 588.732 411.431C566.161 415.099 475.609 380.074 475.609 380.074L471.001 314.202C471.001 314.202 400.669 319.025 364.26 229.118L405.224 203.888C405.224 203.888 435.802 275.026 530.303 248.908C555.521 241.935 625.866 242.016 650.707 272.46C660.649 284.632 657.197 313.92 649.471 344.659Z" fill="#6680FF"/>
<path d="M580.315 319.986C580.315 331.244 563.441 340.38 542.643 340.38C521.833 340.38 504.958 331.244 504.958 319.986C504.958 308.714 521.833 299.591 542.643 299.591C563.441 299.591 580.315 308.714 580.315 319.986Z" fill="white"/>
<path d="M649.471 344.659C637.904 390.781 616.73 440.209 616.73 440.209C616.73 440.209 612.337 413.903 594.993 411.337C606.224 393.549 614.957 374.109 620.546 354.346C625.033 349.993 630.071 346.245 636.01 344.458C640.336 343.155 645.226 343.208 649.471 344.659Z" fill="black"/>
<path d="M499.706 271.809L485.178 361.346L447.822 315.095L499.706 271.809Z" fill="black"/>
<path d="M377.756 295.927L420.236 376.648C420.942 377.99 422.333 378.83 423.85 378.83H551.608C554.682 378.83 556.654 375.563 555.223 372.843L512.744 292.122C512.037 290.78 510.646 289.94 509.129 289.94H381.371C378.297 289.94 376.325 293.207 377.756 295.927Z" fill="white"/>
<path d="M551.608 379.3H423.85C422.154 379.3 420.61 378.368 419.819 376.867L377.34 296.146C375.742 293.111 377.946 289.47 381.371 289.47H509.129C510.825 289.47 512.37 290.402 513.159 291.904L555.638 372.624C557.237 375.659 555.033 379.3 551.608 379.3ZM381.371 290.41C378.649 290.41 376.907 293.302 378.172 295.708L420.651 376.429C421.279 377.62 422.505 378.36 423.85 378.36H551.608C554.329 378.36 556.072 375.468 554.807 373.062L512.328 292.341C511.7 291.15 510.475 290.41 509.129 290.41H381.371Z" fill="black"/>
<path d="M466.011 340.623C467.636 345.513 464.994 349.482 460.095 349.482C455.205 349.482 449.926 345.513 448.301 340.623C446.676 335.732 449.318 331.764 454.208 331.764C459.107 331.764 464.386 335.732 466.011 340.623Z" fill="white"/>
<path d="M460.095 349.952C455.027 349.952 449.536 345.833 447.855 340.771C446.064 335.386 449.187 331.294 454.208 331.294C459.279 331.294 464.775 335.412 466.457 340.475C468.226 345.8 465.191 349.952 460.095 349.952ZM454.208 332.234C449.666 332.234 447.212 335.856 448.748 340.475C450.311 345.182 455.402 349.012 460.095 349.012C464.568 349.012 467.122 345.463 465.565 340.771C464 336.064 458.905 332.234 454.208 332.234Z" fill="black"/>
<path d="M551.604 378.825H542.494C545.565 378.825 547.548 375.56 546.117 372.846L503.623 292.123C502.922 290.781 501.536 289.946 500.015 289.946H509.125C510.646 289.946 512.032 290.781 512.748 292.123L555.227 372.846C556.659 375.56 554.675 378.825 551.604 378.825Z" fill="black"/>
<path d="M551.604 379.295H542.493C542.233 379.295 542.023 379.085 542.023 378.825C542.023 378.566 542.233 378.355 542.493 378.355C545.221 378.355 546.963 375.456 545.701 373.066L503.206 292.342C502.586 291.153 501.363 290.416 500.014 290.416C499.755 290.416 499.545 290.206 499.545 289.946C499.545 289.686 499.755 289.476 500.014 289.476H509.125C510.817 289.476 512.366 290.405 513.162 291.902L555.643 372.627C557.237 375.647 555.036 379.295 551.604 379.295ZM545.275 378.355H551.604C554.332 378.355 556.074 375.456 554.812 373.066L512.331 292.342C511.699 291.155 510.47 290.416 509.125 290.416H502.792C503.302 290.809 503.73 291.313 504.04 291.905L546.533 372.627C547.607 374.662 546.967 377.048 545.275 378.355Z" fill="black"/>
<path d="M216.115 431.565L559.606 404.596L564.85 496.536H216.115V431.565Z" fill="white"/>
<path d="M216.115 497.006C215.855 497.006 215.646 496.795 215.646 496.536V431.564C215.646 431.319 215.833 431.115 216.078 431.096L559.569 404.128C559.687 404.116 559.82 404.159 559.915 404.242C560.01 404.325 560.068 404.443 560.076 404.57L565.32 496.509C565.326 496.638 565.28 496.765 565.192 496.858C564.925 497.14 581.14 496.95 216.115 497.006ZM216.585 496.065H564.353L559.164 405.103L216.585 431.999V496.065Z" fill="black"/>
<path d="M244.958 501.704C244.701 501.704 244.493 501.498 244.489 501.241L243.402 429.392C243.399 429.133 243.606 428.919 243.866 428.915H243.872C244.129 428.915 244.338 429.121 244.342 429.378L245.428 501.227C245.432 501.487 245.225 501.7 244.965 501.704L244.958 501.704Z" fill="black"/>
<path d="M216.115 449.607V496.526H170.543C158.159 496.526 148.121 486.487 148.121 474.104C148.176 473.969 148.059 469.226 152.621 469.226C155.107 469.226 157.122 467.211 157.122 464.725V451.287C157.122 450.521 156.926 449.767 156.554 449.098L148.689 434.969C148.316 434.3 148.121 433.547 148.121 432.78V392.58C148.121 389.346 150.735 386.705 153.969 386.732C160.491 386.786 170.839 387.514 175.906 391.287C182.482 396.165 187.117 408.427 190.109 419.477C193.774 432.951 203.26 444.109 216.088 449.607H216.115Z" fill="#6680FF"/>
<path d="M167.695 388.052C163.036 387.051 157.836 386.764 153.969 386.732C150.735 386.705 148.121 389.346 148.121 392.58V432.78C148.121 433.547 148.316 434.3 148.689 434.969L156.554 449.098C156.926 449.767 157.122 450.521 157.122 451.287V464.725C157.122 467.211 155.107 469.226 152.621 469.226C148.061 469.226 148.176 473.969 148.121 474.104C148.121 485.521 156.66 494.923 167.695 496.326V388.052Z" fill="black"/>
<path d="M267.764 481.636L307.331 506.852L282.839 545.283C276.184 555.726 262.323 558.797 251.88 552.141L251.562 551.939C249.466 550.603 248.849 547.821 250.185 545.724C251.521 543.628 250.905 540.846 248.808 539.51L237.476 532.288C236.83 531.876 236.089 531.636 235.324 531.591L219.183 530.63C218.418 530.584 217.678 530.344 217.032 529.933L183.131 508.328C180.404 506.59 179.581 502.966 181.342 500.253C184.893 494.782 191.068 486.446 196.973 484.201C204.62 481.277 217.453 483.958 228.378 487.374C241.712 491.525 256.219 489.522 267.75 481.658L267.764 481.636Z" fill="#6680FF"/>
<path d="M189.832 489.386C186.484 492.778 183.447 497.009 181.342 500.253C179.581 502.966 180.404 506.59 183.131 508.328L217.032 529.933C217.678 530.344 218.418 530.584 219.183 530.63L235.324 531.591C236.089 531.636 236.83 531.876 237.476 532.288L248.808 539.51C250.905 540.846 251.521 543.628 250.185 545.724C248.849 547.821 249.466 550.603 251.562 551.939L251.88 552.141C261.508 558.277 274.026 556.13 281.14 547.577L189.832 489.386Z" fill="black"/>
<path d="M603.757 411.293C568.883 379.041 478.381 339.108 424.325 348.789C370.268 358.471 258.355 477.195 258.355 477.195L308.573 518.647C308.573 518.647 385.567 451.485 420.281 438.129C458.137 423.565 499.804 511.221 575.602 495.225C638.363 481.981 620.006 426.32 603.757 411.293Z" fill="white"/>
<path d="M308.273 519.009L258.056 477.557C257.843 477.382 257.829 477.067 258.013 476.872C259.133 475.684 370.653 357.925 424.242 348.327C478.715 338.568 569.484 378.956 604.075 410.948C613.59 419.746 623.837 442.562 618.331 462.516C615.101 474.225 605.083 489.485 575.699 495.686C532.619 504.778 500.085 480.229 473.955 460.502C453.937 445.39 436.654 432.335 420.45 438.568C386.211 451.741 309.651 518.33 308.882 519.001C308.707 519.153 308.449 519.155 308.273 519.009ZM259.043 477.153L308.565 518.031C313.878 513.424 386.816 450.501 420.112 437.69C436.798 431.271 454.279 444.47 474.522 459.752C500.501 479.363 532.834 503.771 575.505 494.765C598.397 489.935 612.893 478.696 617.425 462.266C622.832 442.672 612.775 420.274 603.437 411.638C568.983 379.775 478.621 339.541 424.407 349.252C372.605 358.53 265.966 469.872 259.043 477.153Z" fill="black"/>
<path d="M300.354 475.628C300.064 475.395 300.02 474.972 300.252 474.683C300.455 474.432 320.875 449.252 348.359 427.358C384.859 398.283 417.214 388.183 441.938 398.159C459.248 405.144 475.102 416.296 490.434 427.082C528.465 453.836 564.386 479.108 616.869 438.371C617.159 438.144 617.584 438.196 617.811 438.49C618.039 438.783 617.985 439.205 617.692 439.432C597.487 455.116 579.712 461.174 563.344 461.176C536.56 461.179 513.525 444.969 489.66 428.181C474.391 417.439 458.602 406.332 441.435 399.405C382.705 375.706 302.106 474.526 301.299 475.527C301.06 475.82 300.636 475.858 300.354 475.628Z" fill="#3550FE"/>
<path d="M536.369 422.845C525.709 431.092 520.463 431.997 514.796 434.264C502.037 439.373 493.269 440.356 494.266 437.087C494.725 435.568 497.92 433.452 501.218 431.624C491.739 435.269 485.001 434.44 485.85 431.678C486.473 429.641 492.416 426.412 496.856 424.249C487.112 428.192 477.807 428.02 478.664 425.205C479.661 421.935 497.067 415.154 497.067 415.154C497.067 415.154 476.38 422.583 476.858 415.572C477.193 410.564 509.219 407.54 501.604 403.932C493.989 400.324 491.147 392.809 492.958 390.92C494.782 389.035 505.913 400.563 511.021 401.932C514.114 402.761 523.69 400.051 523.69 400.051L536.369 422.845Z" fill="white"/>
<path d="M497.175 439.647C495.77 439.647 494.689 439.405 494.081 438.846C493.55 438.358 493.387 437.664 493.622 436.891C493.736 436.515 494.013 435.604 496.376 433.86C491.438 435.078 487.319 435.035 485.763 433.583C485.161 433.021 484.964 432.274 485.208 431.48C485.359 430.984 485.742 429.735 490.221 427.032C484.871 428.252 480.108 428.277 478.53 426.835C477.993 426.343 477.812 425.695 478.021 425.009C478.572 423.204 482.98 420.695 487.448 418.563C483.417 419.374 479.273 419.693 477.352 418.241C476.512 417.607 476.109 416.668 476.187 415.526C476.369 412.819 482.32 411.085 491.38 408.748C495.527 407.678 501.791 406.062 502.102 405.052C502.087 405.052 501.967 404.847 501.316 404.539C495.702 401.879 492.483 397.066 491.868 393.719C491.607 392.294 491.822 391.135 492.474 390.455C493.799 389.082 496.599 391.138 501.841 395.194C505.163 397.763 508.927 400.676 511.195 401.284C513.58 401.923 520.892 400.144 523.507 399.404C523.806 399.319 524.125 399.452 524.276 399.724L536.955 422.519C537.117 422.809 537.042 423.174 536.779 423.377C527.989 430.176 522.753 432.066 518.133 433.733C517.094 434.108 516.076 434.475 515.045 434.887C508.915 437.342 501.505 439.647 497.175 439.647ZM501.826 431.339C501.976 431.659 501.851 432.04 501.543 432.211C496.013 435.276 495.06 436.778 494.908 437.282C494.789 437.672 494.92 437.792 494.991 437.857C496.052 438.83 502.296 438.546 514.546 433.64C515.592 433.222 516.623 432.849 517.677 432.469C522.341 430.786 527.16 429.048 535.5 422.666L523.359 400.838C521.291 401.397 513.695 403.343 510.846 402.581C508.318 401.903 504.608 399.033 501.019 396.257C498.323 394.171 494.276 391.013 493.431 391.395C493.108 391.734 493.013 392.516 493.19 393.476C493.745 396.497 496.704 400.868 501.89 403.325C502.3 403.518 503.542 404.107 503.44 405.184C503.268 406.987 499.302 408.092 491.716 410.049C486.117 411.493 477.658 413.675 477.528 415.617C477.48 416.314 477.681 416.807 478.161 417.169C481.149 419.427 492.659 416.023 496.841 414.521C497.186 414.396 497.569 414.575 497.697 414.918C497.826 415.262 497.654 415.646 497.312 415.78C490.699 418.356 479.964 423.247 479.307 425.401C479.258 425.56 479.264 425.684 479.438 425.843C480.9 427.181 488.315 426.981 496.604 423.626C496.94 423.49 497.323 423.644 497.47 423.975C497.617 424.306 497.476 424.694 497.15 424.852C487.872 429.373 486.646 431.37 486.493 431.874C486.4 432.175 486.456 432.392 486.68 432.601C487.91 433.747 493.159 434.004 500.976 430.997C501.305 430.87 501.678 431.02 501.826 431.339Z" fill="black"/>
<path d="M602.174 274.86C602.174 274.86 607.546 372.891 512.202 386.991L539.929 438.902C539.929 438.902 635.907 407.791 647.61 343.409" fill="#6680FF"/>
<path d="M551.032 374.322C550.849 373.999 550.964 373.589 551.286 373.407C582.314 355.833 594.239 325.834 598.778 303.763C598.852 303.398 599.218 303.168 599.571 303.24C599.934 303.315 600.168 303.67 600.093 304.034C595.498 326.378 583.415 356.754 551.948 374.576C551.631 374.756 551.219 374.649 551.032 374.322Z" fill="black"/>
<path d="M452.233 103.102C452.233 159.621 406.396 205.446 349.877 205.446C293.346 205.446 247.522 159.621 247.522 103.102C247.522 46.5712 293.346 0.746827 349.877 0.746827C406.396 0.746827 452.233 46.5712 452.233 103.102Z" fill="white"/>
<path d="M349.877 205.916C293.179 205.916 247.052 159.794 247.052 103.102C247.052 46.4039 293.179 0.276611 349.877 0.276611C406.576 0.276611 452.702 46.4039 452.702 103.102C452.702 159.794 406.576 205.916 349.877 205.916ZM349.877 1.21699C293.698 1.21699 247.992 46.9225 247.992 103.102C247.992 159.275 293.698 204.976 349.877 204.976C406.056 204.976 451.763 159.275 451.763 103.102C451.763 46.9225 406.056 1.21699 349.877 1.21699Z" fill="black"/>
<path d="M596.054 230.421L594.348 247.148L579.5 258.381L576.479 245.603L578.212 237.314C578.239 237.314 578.266 237.327 578.279 237.327C578.266 237.314 578.239 237.314 578.212 237.3C571.817 235.258 566.295 229.696 564.28 223.382C562.386 223.449 561.418 223.771 559.658 223.825C558.799 223.852 562.077 218.411 563.34 215.71C563.407 215.052 563.474 214.38 563.608 213.708C565.395 203.807 574.571 198.272 584.124 201.335C596.155 205.192 602.113 220.268 596.054 230.421Z" fill="white"/>
<path d="M579.042 258.489L576.022 245.711C576.006 245.644 576.005 245.574 576.019 245.507L577.669 237.611C571.529 235.528 566.056 230.062 563.946 223.868C562.308 223.958 561.344 224.244 559.673 224.295C559.518 224.299 559.259 224.2 559.146 224.019C558.811 223.48 559.283 222.436 561.339 218.573C561.931 217.459 562.492 216.406 562.88 215.583C562.947 214.919 563.016 214.27 563.148 213.616C564.981 203.452 574.425 197.73 584.266 200.887C594.007 204.01 600.435 214.759 598.6 224.848C598.227 226.924 597.524 228.849 596.511 230.572L594.816 247.196C594.802 247.326 594.736 247.444 594.631 247.523L579.783 258.756C579.513 258.96 579.12 258.818 579.042 258.489ZM576.961 245.597L579.791 257.57L593.9 246.897C595.699 229.416 595.547 230.351 595.649 230.18C596.633 228.532 597.314 226.682 597.674 224.682C597.674 224.682 597.674 224.683 597.674 224.682C599.429 215.04 593.286 204.766 583.98 201.783C574.676 198.801 565.805 204.179 564.072 213.792C563.942 214.437 563.875 215.089 563.812 215.719C563.805 215.771 563.788 215.861 563.766 215.909C563.366 216.764 562.785 217.857 562.169 219.014C561.411 220.438 560.318 222.493 560.049 223.337C561.602 223.248 562.445 222.976 564.263 222.912C564.513 222.898 564.665 223.038 564.728 223.239C566.697 229.407 572.173 234.878 578.356 236.852C578.789 236.99 578.846 237.407 578.623 237.648L576.961 245.597Z" fill="black"/>
<path d="M578.212 237.3V237.314C578.185 237.3 578.159 237.3 578.132 237.287C578.159 237.287 578.185 237.287 578.212 237.3Z" fill="white"/>
<path d="M578.213 237.784C577.899 237.784 577.652 237.461 577.714 237.195C577.763 236.981 577.912 236.817 578.131 236.817C578.888 236.817 578.815 237.784 578.213 237.784Z" fill="black"/>
<path d="M596.386 228.944C606.416 228.944 614.532 220.454 613.707 210.458C612.952 201.3 598.713 190.775 588.395 189.346C567.449 186.444 576.055 200.742 576.055 200.742C570.726 202.133 582.038 220.183 596.386 228.944Z" fill="black"/>
<path d="M588.395 223.365C589.203 220.597 592.131 218.995 594.897 219.819C597.68 220.628 599.282 223.557 598.459 226.322C597.649 229.106 594.721 230.707 591.939 229.882" fill="white"/>
<path d="M591.805 230.333C591.556 230.259 591.414 229.998 591.488 229.749C591.562 229.499 591.823 229.357 592.073 229.431C594.599 230.182 597.267 228.734 598.007 226.191C598.761 223.659 597.292 221.005 594.766 220.27C592.243 219.519 589.583 220.977 588.846 223.497C588.773 223.746 588.509 223.89 588.264 223.816C588.015 223.743 587.87 223.482 587.944 223.233C588.821 220.225 592.005 218.466 595.031 219.368C598.043 220.244 599.814 223.42 598.908 226.456C598.032 229.479 594.851 231.235 591.805 230.333Z" fill="black"/>
<path d="M571.886 219.032C571.608 219.899 570.674 220.38 569.817 220.105C568.95 219.827 568.469 218.893 568.747 218.026C569.025 217.159 569.956 216.688 570.823 216.966C571.68 217.241 572.164 218.165 571.886 219.032Z" fill="black"/>
<path d="M569.024 210.707C571.017 209.453 573.652 210.053 574.905 212.046L569.024 210.707Z" fill="#FBFBFB"/>
<path d="M574.508 212.296C573.392 210.523 571.048 209.988 569.275 211.105C569.057 211.242 568.766 211.178 568.627 210.957C568.488 210.737 568.555 210.447 568.774 210.309C570.983 208.918 573.911 209.579 575.303 211.796C575.442 212.016 575.375 212.306 575.156 212.444C574.939 212.581 574.648 212.519 574.508 212.296Z" fill="black"/>
<path d="M573.295 226.056C573.295 226.056 575.587 227.563 578.105 225.311L573.295 226.056Z" fill="#FBFBFB"/>
<path d="M573.037 226.448C572.82 226.306 572.76 226.014 572.903 225.797C573.043 225.58 573.333 225.52 573.552 225.662C573.639 225.719 575.593 226.928 577.791 224.961C577.983 224.788 578.282 224.804 578.455 224.998C578.628 225.191 578.611 225.489 578.419 225.662C576.556 227.327 574.263 227.284 573.037 226.448Z" fill="black"/>
<path d="M382.917 214.954C379.908 214.172 377.992 212.806 377.221 210.893C376.122 208.17 377.787 205.403 377.858 205.287C377.995 205.065 378.281 204.997 378.505 205.131C378.726 205.267 378.796 205.556 378.661 205.778C378.646 205.802 377.172 208.267 378.096 210.548C378.75 212.165 380.452 213.342 383.154 214.044C383.405 214.109 383.556 214.366 383.491 214.617C383.424 214.873 383.164 215.019 382.917 214.954Z" fill="black"/>
<path d="M425.887 59.6765L399.232 75.073C389.367 57.7024 370.73 46.3221 349.872 46.3221V15.5694C382.258 15.5694 410.719 33.2001 425.887 59.6765Z" fill="#75C675"/>
<path d="M399.231 75.5431C399.19 75.5431 399.148 75.5377 399.108 75.5267C398.987 75.4939 398.885 75.414 398.822 75.3051C388.825 57.698 370.11 46.7922 349.872 46.7922C349.612 46.7922 349.402 46.5816 349.402 46.322V15.5693C349.402 15.3096 349.612 15.0992 349.872 15.0992C381.73 15.0992 410.7 32.2216 426.295 59.4428C426.424 59.6674 426.346 59.9541 426.122 60.0837L399.466 75.4801C399.394 75.5218 399.312 75.5431 399.231 75.5431ZM350.342 45.8538C370.582 46.0208 389.259 56.9023 399.404 74.4298L425.246 59.5043C409.787 32.8575 381.424 16.2086 350.342 16.0408V45.8538Z" fill="black"/>
<path d="M349.872 15.5694V46.3221C329.008 46.3221 310.404 57.7136 300.511 75.0595L273.87 59.6765C289.117 33.0143 317.738 15.5694 349.872 15.5694Z" fill="#FFAE44"/>
<path d="M300.511 75.5296C300.43 75.5296 300.349 75.5083 300.277 75.4667L273.635 60.0837C273.411 59.9543 273.333 59.6678 273.462 59.4431C288.673 32.8436 317.343 15.0992 349.872 15.0992C350.132 15.0992 350.342 15.3097 350.342 15.5693V46.322C350.342 46.5818 350.132 46.7922 349.872 46.7922C329.694 46.7922 310.986 57.647 300.919 75.2925C300.858 75.4011 300.755 75.4806 300.635 75.5134C300.594 75.5242 300.552 75.5296 300.511 75.5296ZM274.511 59.5041L300.338 74.4169C310.538 56.8746 329.198 46.0207 349.402 45.8538V16.0408C317.624 16.2124 289.575 33.494 274.511 59.5041Z" fill="black"/>
<path d="M437.4 103.098C437.21 104.446 438.519 124.909 425.483 147.219L398.828 131.822C404.121 122.837 406.648 112.885 406.648 103.098C406.648 92.9011 403.947 83.3353 399.232 75.073L425.887 59.6765C433.222 72.4801 437.4 87.2986 437.4 103.098Z" fill="#3A9BF3"/>
<path d="M425.248 147.626L398.593 132.229C398.368 132.1 398.289 131.812 398.423 131.584C406.698 117.538 406.093 103.713 406.178 103.098C406.178 93.3451 403.634 83.7348 398.823 75.306C398.694 75.0813 398.772 74.7951 398.996 74.6657L425.652 59.2693C425.76 59.2066 425.89 59.1894 426.009 59.2225C426.13 59.255 426.233 59.3342 426.295 59.4428C433.868 72.6601 437.87 87.756 437.87 103.098C437.731 104.12 438.997 125.021 425.888 147.456C425.758 147.681 425.469 147.754 425.248 147.626ZM399.472 131.651L425.312 146.577C437.726 125.063 436.579 105.709 436.93 103.098C436.93 88.0781 433.052 73.2973 425.712 60.3204L399.87 75.2471C404.613 83.7192 407.117 93.3387 407.117 103.098C407.031 103.734 407.64 117.518 399.472 131.651Z" fill="black"/>
<path d="M300.915 131.836L274.273 147.219C266.245 133.503 262.343 118.25 262.343 103.098C262.343 87.2986 266.534 72.4801 273.87 59.6765L300.511 75.0595C295.809 83.3353 293.109 92.9011 293.109 103.098C293.109 112.927 295.656 122.869 300.915 131.836Z" fill="#FFA186"/>
<path d="M273.867 147.456C261.119 125.677 262.268 106.001 261.873 103.098C261.873 87.7724 265.88 72.6768 273.462 59.4431C273.523 59.3345 273.627 59.255 273.748 59.2225C273.865 59.1894 273.996 59.2066 274.105 59.2693L300.746 74.6523C300.971 74.7815 301.048 75.067 300.921 75.2917C296.118 83.744 293.579 93.3594 293.579 103.098C293.664 103.718 293.045 117.489 301.32 131.598C301.453 131.826 301.375 132.113 301.149 132.243L274.508 147.626C274.287 147.754 273.998 147.682 273.867 147.456ZM274.044 60.3204C266.696 73.3132 262.812 88.0945 262.812 103.098C262.981 104.351 261.784 124.676 274.443 146.577L300.271 131.664C292.109 117.476 292.726 103.732 292.639 103.098C292.639 93.3527 295.139 83.7289 299.874 75.2341L274.044 60.3204Z" fill="black"/>
<path d="M375.185 160.714V172.727C375.185 174.228 373.968 175.445 372.468 175.445H327.287C325.786 175.445 324.569 174.228 324.569 172.727V160.714C324.569 159.214 325.786 157.997 327.287 157.997H372.468C373.968 157.997 375.185 159.214 375.185 160.714Z" fill="black"/>
<path d="M363.797 121.515C363.797 129.912 356.996 136.713 348.599 136.713C340.202 136.713 333.391 129.912 333.391 121.515C333.391 114.476 344.075 89.7236 347.533 81.898C347.943 80.9708 349.254 80.9709 349.663 81.8983C353.119 89.7242 363.797 114.477 363.797 121.515Z" fill="white"/>
<path d="M348.598 137.183C339.953 137.183 332.921 130.155 332.921 121.515C332.921 114.366 343.775 89.2389 347.102 81.708C347.369 81.1063 347.941 80.7325 348.598 80.7325C349.255 80.7325 349.827 81.1064 350.094 81.7083C353.418 89.2376 364.266 114.36 364.266 121.515C364.266 130.155 357.238 137.183 348.598 137.183ZM348.598 81.6729C348.315 81.6729 348.077 81.828 347.963 82.088C344.654 89.5764 333.86 114.55 333.86 121.515C333.86 129.636 340.471 136.243 348.598 136.243C356.719 136.243 363.327 129.636 363.327 121.515C363.327 114.544 352.539 89.575 349.233 82.0881C349.119 81.8282 348.881 81.6729 348.598 81.6729Z" fill="black"/>
<path d="M355.606 121.853C355.606 125.72 352.466 128.86 348.599 128.86C344.721 128.86 341.581 125.72 341.581 121.853C341.581 117.975 344.721 114.835 348.599 114.835C352.466 114.835 355.606 117.975 355.606 121.853Z" fill="#6680FF"/>
<path d="M258.333 340.58C249.41 331.771 245.061 318.056 246.459 303.48C233.941 301.228 220.656 296.953 212.897 286.925C186.347 252.625 211.53 211.418 233.412 177.248C233.553 177.029 233.843 176.967 234.061 177.106C234.28 177.246 234.344 177.537 234.204 177.756C213.114 210.671 187.222 252.217 213.64 286.35C221.228 296.154 234.304 300.327 246.557 302.542C248.988 280.97 266.378 253.576 276.623 246.783C290.114 237.835 304.697 244.705 306.232 262.629C307.413 276.407 300.378 290.668 288.726 298.115C278.394 304.72 264.506 306.572 247.388 303.643C246.038 317.911 250.287 331.315 258.994 339.911C275.469 356.175 327.666 366.053 373.381 342.923C373.613 342.807 373.896 342.899 374.013 343.131C374.13 343.363 374.037 343.645 373.806 343.763C329.501 366.178 276.281 358.296 258.333 340.58ZM247.485 302.706C264.395 305.61 278.076 303.805 288.219 297.323C299.584 290.059 306.447 276.148 305.295 262.709C303.837 245.682 290.191 238.914 277.142 247.566C267.201 254.159 249.85 281.363 247.485 302.706Z" fill="black"/>
<path d="M367.661 356.825C367.428 356.713 367.327 356.433 367.438 356.198L373.433 343.561L360.794 337.567C360.561 337.456 360.46 337.175 360.571 336.941C360.683 336.705 360.964 336.607 361.198 336.717L374.261 342.912C374.495 343.025 374.596 343.304 374.484 343.539L368.289 356.601C368.179 356.834 367.9 356.937 367.661 356.825Z" fill="black"/>
<path d="M615.548 206.461C620.831 206.461 625.114 202.178 625.114 196.895C625.114 191.612 620.831 187.33 615.548 187.33C610.265 187.33 605.983 191.612 605.983 196.895C605.983 202.178 610.265 206.461 615.548 206.461Z" fill="black"/>
<path d="M669.146 163.865H534.648C527.614 163.865 521.891 158.142 521.891 151.107V71.6944C521.891 71.3234 522.191 71.0226 522.563 71.0226H681.232C681.603 71.0226 681.904 71.3234 681.904 71.6944V151.107C681.904 158.142 676.18 163.865 669.146 163.865ZM523.234 72.3661V151.107C523.234 157.401 528.354 162.521 534.648 162.521H669.146C675.439 162.521 680.56 157.401 680.56 151.107V72.3661H523.234Z" fill="black"/>
<path d="M681.228 72.3674H522.565C522.194 72.3674 521.893 72.0666 521.893 71.6957V60.7617C521.893 53.7274 527.616 48.0044 534.65 48.0044H669.141C676.176 48.0044 681.899 53.7274 681.899 60.7617V71.6957C681.899 72.0666 681.599 72.3674 681.228 72.3674ZM523.237 71.0239H680.556V60.7617C680.556 54.4682 675.435 49.3479 669.141 49.3479H534.65C528.356 49.3479 523.237 54.4682 523.237 60.7617V71.0239Z" fill="black"/>
<path d="M544.207 60.7242C544.207 63.375 542.069 65.5135 539.436 65.5135C536.803 65.5135 534.664 63.375 534.664 60.7242C534.664 58.091 536.803 55.9526 539.436 55.9526C542.069 55.9526 544.207 58.091 544.207 60.7242Z" fill="#3A9BF3"/>
<path d="M559.022 60.7242C559.022 63.375 556.883 65.5135 554.25 65.5135C551.617 65.5135 549.479 63.375 549.479 60.7242C549.479 58.091 551.617 55.9526 554.25 55.9526C556.883 55.9526 559.022 58.091 559.022 60.7242Z" fill="#75C675"/>
<path d="M573.836 60.7242C573.836 63.375 571.698 65.5135 569.065 65.5135C566.432 65.5135 564.293 63.375 564.293 60.7242C564.293 58.091 566.432 55.9526 569.065 55.9526C571.698 55.9526 573.836 58.091 573.836 60.7242Z" fill="#FFA186"/>
<path d="M550.828 88.5223H539.436C539.065 88.5223 538.764 88.2215 538.764 87.8506C538.764 87.4796 539.065 87.1788 539.436 87.1788H550.828C551.2 87.1788 551.5 87.4796 551.5 87.8506C551.5 88.2215 551.2 88.5223 550.828 88.5223Z" fill="black"/>
<path d="M550.828 96.939H539.436C539.065 96.939 538.764 96.6382 538.764 96.2673C538.764 95.8963 539.065 95.5955 539.436 95.5955H550.828C551.2 95.5955 551.5 95.8963 551.5 96.2673C551.5 96.6382 551.2 96.939 550.828 96.939Z" fill="black"/>
<path d="M556.47 105.356H545.076C544.705 105.356 544.405 105.055 544.405 104.684C544.405 104.313 544.705 104.012 545.076 104.012H556.47C556.841 104.012 557.142 104.313 557.142 104.684C557.142 105.055 556.841 105.356 556.47 105.356Z" fill="black"/>
<path d="M556.47 113.772H545.076C544.705 113.772 544.405 113.472 544.405 113.101C544.405 112.73 544.705 112.429 545.076 112.429H556.47C556.841 112.429 557.142 112.73 557.142 113.101C557.142 113.472 556.841 113.772 556.47 113.772Z" fill="black"/>
<path d="M550.828 122.189H539.436C539.065 122.189 538.764 121.888 538.764 121.517C538.764 121.146 539.065 120.846 539.436 120.846H550.828C551.2 120.846 551.5 121.146 551.5 121.517C551.5 121.888 551.2 122.189 550.828 122.189Z" fill="black"/>
<path d="M550.828 130.606H539.436C539.065 130.606 538.764 130.305 538.764 129.934C538.764 129.563 539.065 129.262 539.436 129.262H550.828C551.2 129.262 551.5 129.563 551.5 129.934C551.5 130.305 551.2 130.606 550.828 130.606Z" fill="black"/>
<path d="M556.47 139.023H545.076C544.705 139.023 544.405 138.722 544.405 138.351C544.405 137.98 544.705 137.679 545.076 137.679H556.47C556.841 137.679 557.142 137.98 557.142 138.351C557.142 138.722 556.841 139.023 556.47 139.023Z" fill="black"/>
<path d="M556.47 147.439H545.076C544.705 147.439 544.405 147.138 544.405 146.767C544.405 146.397 544.705 146.096 545.076 146.096H556.47C556.841 146.096 557.142 146.397 557.142 146.767C557.142 147.138 556.841 147.439 556.47 147.439Z" fill="black"/>
<path d="M589.298 88.5223H577.316C576.945 88.5223 576.645 88.2215 576.645 87.8505C576.645 87.4796 576.945 87.1788 577.316 87.1788H589.298C589.669 87.1788 589.969 87.4796 589.969 87.8505C589.969 88.2215 589.669 88.5223 589.298 88.5223Z" fill="black"/>
<path d="M637.186 88.5223H601.356C600.985 88.5223 600.685 88.2215 600.685 87.8505C600.685 87.4796 600.985 87.1788 601.356 87.1788H637.186C637.557 87.1788 637.858 87.4796 637.858 87.8505C637.858 88.2215 637.557 88.5223 637.186 88.5223Z" fill="black"/>
<path d="M637.186 96.939H577.316C576.945 96.939 576.645 96.6382 576.645 96.2673C576.645 95.8963 576.945 95.5955 577.316 95.5955H637.186C637.557 95.5955 637.858 95.8963 637.858 96.2673C637.858 96.6382 637.557 96.939 637.186 96.939Z" fill="black"/>
<path d="M620.808 105.356H573.047C572.676 105.356 572.375 105.055 572.375 104.684C572.375 104.313 572.676 104.012 573.047 104.012H620.808C621.18 104.012 621.48 104.313 621.48 104.684C621.48 105.055 621.18 105.356 620.808 105.356Z" fill="black"/>
<path d="M660.797 105.356H642.021C641.65 105.356 641.349 105.055 641.349 104.684C641.349 104.313 641.65 104.012 642.021 104.012H660.797C661.168 104.012 661.469 104.313 661.469 104.684C661.469 105.055 661.168 105.356 660.797 105.356Z" fill="black"/>
<path d="M582.679 113.772H573.047C572.676 113.772 572.375 113.472 572.375 113.101C572.375 112.73 572.676 112.429 573.047 112.429H582.679C583.05 112.429 583.35 112.73 583.35 113.101C583.35 113.472 583.05 113.772 582.679 113.772Z" fill="black"/>
<path d="M639.786 113.772H601.356C600.985 113.772 600.685 113.472 600.685 113.101C600.685 112.73 600.985 112.429 601.356 112.429H639.786C640.158 112.429 640.458 112.73 640.458 113.101C640.458 113.472 640.158 113.772 639.786 113.772Z" fill="black"/>
<path d="M660.797 113.772H649.825C649.453 113.772 649.153 113.472 649.153 113.101C649.153 112.73 649.453 112.429 649.825 112.429H660.797C661.168 112.429 661.469 112.73 661.469 113.101C661.469 113.472 661.168 113.772 660.797 113.772Z" fill="black"/>
<path d="M637.186 122.189H582.68C582.309 122.189 582.008 121.888 582.008 121.517C582.008 121.146 582.309 120.846 582.68 120.846H637.186C637.557 120.846 637.858 121.146 637.858 121.517C637.858 121.888 637.557 122.189 637.186 122.189Z" fill="black"/>
<path d="M637.186 130.606H582.68C582.309 130.606 582.008 130.305 582.008 129.934C582.008 129.563 582.309 129.262 582.68 129.262H637.186C637.557 129.262 637.858 129.563 637.858 129.934C637.858 130.305 637.557 130.606 637.186 130.606Z" fill="black"/>
<path d="M610.798 139.023H573.047C572.676 139.023 572.375 138.722 572.375 138.351C572.375 137.98 572.676 137.679 573.047 137.679H610.798C611.169 137.679 611.469 137.98 611.469 138.351C611.469 138.722 611.169 139.023 610.798 139.023Z" fill="black"/>
<path d="M659.212 139.023H622.847C622.476 139.023 622.175 138.722 622.175 138.351C622.175 137.98 622.476 137.679 622.847 137.679H659.212C659.583 137.679 659.884 137.98 659.884 138.351C659.884 138.722 659.583 139.023 659.212 139.023Z" fill="black"/>
<path d="M587.235 147.439H573.047C572.676 147.439 572.375 147.138 572.375 146.767C572.375 146.397 572.676 146.096 573.047 146.096H587.235C587.607 146.096 587.907 146.397 587.907 146.767C587.907 147.138 587.607 147.439 587.235 147.439Z" fill="black"/>
<path d="M644.556 147.439H599.143C598.772 147.439 598.471 147.138 598.471 146.767C598.471 146.397 598.772 146.096 599.143 146.096H644.556C644.927 146.096 645.227 146.397 645.227 146.767C645.227 147.138 644.927 147.439 644.556 147.439Z" fill="black"/>
<path d="M659.212 147.439H652.838C652.467 147.439 652.167 147.138 652.167 146.767C652.167 146.397 652.467 146.096 652.838 146.096H659.212C659.583 146.096 659.884 146.397 659.884 146.767C659.884 147.138 659.583 147.439 659.212 147.439Z" fill="black"/>
<path d="M328.902 501.58L279.257 455.975C279.065 455.8 279.052 455.502 279.228 455.311C279.404 455.119 279.703 455.107 279.892 455.283L329.537 500.887C329.729 501.063 329.742 501.361 329.566 501.552C329.387 501.746 329.089 501.754 328.902 501.58Z" fill="black"/>
<path d="M578.212 237.314C578.212 237.314 581.178 237.88 584.995 236.307C582.695 238.639 580.156 240.183 577.422 241.092C577.607 240.21 578.252 237.123 578.212 237.314Z" fill="black"/>
<path d="M576.962 240.996L577.752 237.217C577.806 236.966 578.039 236.803 578.3 236.852C578.325 236.857 581.187 237.367 584.815 235.872C585.29 235.678 585.685 236.276 585.329 236.637C583.071 238.928 580.461 240.577 577.571 241.538C577.225 241.653 576.889 241.348 576.962 240.996ZM578.583 237.837L578.055 240.366C579.846 239.676 581.518 238.698 583.05 237.445C580.972 237.97 579.342 237.913 578.583 237.837Z" fill="black"/>
<path d="M398.989 207.845C398.989 207.845 393.755 200.06 381.176 192.759C368.596 185.457 367.084 194.219 378.396 205.446" fill="white"/>
<path d="M398.6 208.107C398.547 208.03 393.264 200.319 380.939 193.165C376.322 190.485 372.857 189.809 371.671 191.357C370.211 193.263 372.166 198.599 378.727 205.112C378.912 205.295 378.913 205.593 378.73 205.777C378.548 205.961 378.249 205.963 378.066 205.78C371.835 199.596 368.897 193.43 370.924 190.785C372.448 188.796 376.271 189.369 381.411 192.352C393.94 199.624 399.327 207.504 399.379 207.582C399.525 207.798 399.467 208.09 399.252 208.235C399.039 208.379 398.746 208.324 398.6 208.107Z" fill="black"/>
<path d="M563.485 426.122C563.268 426.122 563.052 426.016 562.924 425.82L534.116 381.959C533.913 381.649 533.999 381.233 534.309 381.029C534.617 380.827 535.034 380.911 535.239 381.222L564.047 425.082C564.25 425.392 564.164 425.809 563.854 426.012C563.74 426.087 563.613 426.122 563.485 426.122Z" fill="black"/>
<path d="M545.859 425.563C543.711 425.563 541.965 423.816 541.965 421.668C541.965 419.521 543.711 417.774 545.859 417.774C548.006 417.774 549.754 419.521 549.754 421.668C549.754 423.816 548.006 425.563 545.859 425.563ZM545.859 419.117C544.452 419.117 543.308 420.262 543.308 421.668C543.308 423.075 544.452 424.219 545.859 424.219C547.265 424.219 548.41 423.075 548.41 421.668C548.41 420.262 547.265 419.117 545.859 419.117Z" fill="black"/>
<path d="M382.515 243.165C382.28 242.877 382.323 242.454 382.612 242.22L412.352 218.013C412.638 217.781 413.062 217.822 413.297 218.11C413.532 218.398 413.489 218.821 413.2 219.055L383.459 243.262C383.171 243.496 382.748 243.452 382.515 243.165Z" fill="black"/>
<path d="M379.16 235.809C377.116 235.809 375.452 234.145 375.452 232.101C375.452 230.064 377.116 228.406 379.16 228.406C381.204 228.406 382.868 230.064 382.868 232.101C382.868 234.145 381.204 235.809 379.16 235.809ZM379.16 229.75C377.856 229.75 376.796 230.804 376.796 232.101C376.796 233.405 377.856 234.465 379.16 234.465C380.464 234.465 381.524 233.405 381.524 232.101C381.524 230.804 380.464 229.75 379.16 229.75Z" fill="black"/>
<path d="M191.072 429.045C189.05 426.662 191.623 419.502 196.928 412.746C199.989 408.848 207.397 401.586 210.235 404.943C212.488 407.598 209.023 415.311 204.371 421.233C200.298 426.422 195.851 429.808 193.044 429.861C192.277 429.873 191.57 429.634 191.072 429.045ZM197.668 413.326C192.292 420.173 190.287 426.667 191.788 428.436C192.073 428.773 192.474 428.927 193.027 428.921C195.484 428.875 199.845 425.475 203.632 420.653C209.008 413.806 211.015 407.317 209.518 405.551C207.416 403.075 200.509 409.708 197.668 413.326Z" fill="black"/>
<path d="M191.072 429.045C188.223 425.687 195.937 421.693 200.17 420.296C207.204 417.975 214.277 418 216.274 420.355C219.119 423.709 211.401 427.698 207.167 429.096C203.132 430.428 193.774 432.233 191.072 429.045ZM200.464 421.189C196.622 422.457 189.768 426.05 191.788 428.436C193.491 430.446 200.396 430.34 206.873 428.203C210.873 426.883 217.546 423.311 215.558 420.963C213.217 418.207 204.098 419.989 200.464 421.189Z" fill="black"/>
<path d="M242.438 491.885C239.247 491.885 233.787 488.213 229.004 482.64C225.524 478.584 220.179 470.16 223.943 468.068C226.971 466.378 233.873 471.276 238.779 476.992C243.074 481.998 245.53 487.019 245.036 489.782C244.89 490.595 244.481 491.209 243.851 491.559C243.455 491.779 242.979 491.885 242.438 491.885ZM224.399 468.89C221.406 470.552 227.099 478.976 229.718 482.028C235.386 488.632 241.36 491.865 243.395 490.737C243.779 490.523 244.014 490.157 244.111 489.617C244.544 487.197 242.058 482.257 238.065 477.605C235.189 474.253 227.528 467.151 224.399 468.89Z" fill="black"/>
<path d="M242.712 491.866C242.342 491.866 241.97 491.773 241.604 491.587C239.499 490.517 237.708 486.334 237.041 480.931C236.133 473.579 237.536 466.646 240.235 465.146C244.079 463.016 246.488 471.347 247.035 475.78C247.943 483.131 246.545 490.062 243.851 491.559C243.482 491.764 243.099 491.866 242.712 491.866ZM240.692 465.968C238.383 467.251 237.139 474.05 237.975 480.815C238.691 486.617 240.528 489.985 242.03 490.749C242.502 490.989 242.948 490.983 243.395 490.737C245.697 489.457 246.937 482.66 246.101 475.895C245.667 472.377 243.608 464.349 240.692 465.968Z" fill="black"/>
<path d="M168.736 82.4472L155.418 99.7534L172.725 113.071L186.043 95.765L168.736 82.4472Z" fill="#76C4FF"/>
<path d="M167.091 75.0594L145.256 75.1683L145.365 97.0029L167.2 96.8939L167.091 75.0594Z" fill="#FFA186"/>
<path d="M662.873 236.238C662.736 236.017 662.805 235.727 663.026 235.591C663.248 235.455 663.535 235.523 663.673 235.745C666.805 240.827 673.486 242.415 678.567 239.284C683.65 236.152 685.236 229.468 682.103 224.386C681.966 224.165 682.035 223.875 682.256 223.739C682.478 223.602 682.766 223.671 682.903 223.892C686.308 229.416 684.584 236.68 679.06 240.085C673.501 243.511 666.255 241.725 662.873 236.238Z" fill="black"/>
<path d="M471.528 195.933C471.276 195.873 471.12 195.62 471.179 195.367C471.239 195.115 471.493 194.958 471.746 195.018C477.205 196.315 482.71 192.928 484.005 187.467C485.306 181.989 481.927 176.506 476.448 175.206C476.196 175.146 476.04 174.893 476.099 174.64C476.159 174.388 476.405 174.23 476.666 174.291C482.648 175.711 486.341 181.7 484.921 187.684C483.508 193.633 477.512 197.354 471.528 195.933Z" fill="black"/>
<path d="M94.1071 409.563C107.118 366.643 200.261 307.745 151.776 306.66C101.575 305.537 84.9952 364.249 86.7712 409.563H94.1071Z" fill="white"/>
<path d="M94.1076 410.033H86.7708C86.5189 410.033 86.3103 409.834 86.3011 409.582C85.1872 381.16 91.4403 343.223 112.327 321.982C122.974 311.156 136.251 305.836 151.786 306.19C181.767 306.86 158.544 329.98 137.855 351.729C120.158 370.333 100.1 391.419 94.5576 409.7C94.4973 409.898 94.3149 410.033 94.1076 410.033ZM87.2235 409.093H93.7599C99.5052 390.678 119.511 369.649 137.174 351.081C160.391 326.673 178.748 307.734 151.765 307.13C136.488 306.791 123.455 312.007 112.998 322.641C92.4309 343.557 86.2014 380.919 87.2235 409.093Z" fill="black"/>
<path d="M78.5288 409.563H86.6867C94.0989 359.309 69.854 300.945 15.1342 306.413C-37.5426 311.677 67.76 366.688 78.5288 409.563Z" fill="white"/>
<path d="M86.6868 410.034H78.5288C78.3136 410.034 78.1247 409.887 78.0722 409.678C73.3804 390.997 50.7338 370.107 30.7519 351.677C12.9454 335.251 -2.43402 321.065 0.321204 312.825C1.57942 309.062 6.41024 306.812 15.0866 305.945C34.6289 303.993 51.7874 310.144 64.75 323.728C83.2034 343.066 91.9965 376.785 87.1526 409.632C87.1185 409.863 86.9204 410.034 86.6868 410.034ZM78.8935 409.093H86.2801C90.9548 376.649 82.2549 343.435 64.0704 324.378C51.3137 311.01 34.3993 304.96 15.181 306.881C6.91011 307.707 2.3417 309.749 1.21337 313.123C-1.34898 320.787 13.8231 334.781 31.3896 350.986C51.3426 369.39 73.9407 390.233 78.8935 409.093Z" fill="black"/>
<path d="M81.881 410.033C81.6265 410.033 81.4166 409.83 81.4113 409.575C80.0914 354.486 23.229 320.962 22.6556 320.63C22.4299 320.5 22.3539 320.212 22.4837 319.988C22.6136 319.762 22.9036 319.687 23.1253 319.816C23.7052 320.151 81.019 353.942 82.3507 409.552C82.3573 409.812 82.1513 410.027 81.8928 410.033C81.8889 410.033 81.885 410.033 81.881 410.033Z" fill="black"/>
<path d="M89.8554 410.031C89.5982 410.002 89.4119 409.769 89.4408 409.511C95.808 352.356 143.081 320.151 143.559 319.832C143.772 319.689 144.065 319.745 144.211 319.962C144.355 320.178 144.297 320.47 144.081 320.614C143.608 320.93 96.6936 352.906 90.3749 409.615C90.3471 409.871 90.118 410.059 89.8554 410.031Z" fill="black"/>
<path d="M125.689 204.774C122.461 199.539 124.085 192.694 129.322 189.467C134.554 186.243 141.398 187.868 144.624 193.103C144.76 193.324 144.692 193.614 144.47 193.75C144.247 193.886 143.96 193.817 143.823 193.597C140.872 188.809 134.608 187.313 129.815 190.267C125.023 193.222 123.535 199.487 126.489 204.28C126.626 204.501 126.557 204.791 126.336 204.928C126.114 205.064 125.826 204.996 125.689 204.774Z" fill="black"/>
</svg>
