<svg width="778" height="877" viewBox="0 0 778 877" fill="none" xmlns="http://www.w3.org/2000/svg">
<path fill-rule="evenodd" clip-rule="evenodd" d="M427.255 0.660905C526.51 5.37687 630.916 42.2627 691.519 119.058C747.553 190.064 709.903 290.888 725.908 379.114C738.776 450.044 786.802 512.961 775.904 584.204C763.832 663.132 725.342 738.453 663.032 790.186C597.771 844.368 511.335 889.895 427.255 873.671C345.761 857.947 320.375 754.823 250.749 710.635C174.569 662.287 41.7528 688.785 6.93092 606.913C-27.1816 526.71 84.4568 456.257 106.808 372.209C131.567 279.108 80.1084 166.633 143.594 93.0241C209.365 16.7636 325.189 -4.1886 427.255 0.660905Z" fill="#72E0D9"/>
</svg>
