<svg width="1440" height="270" viewBox="0 0 1440 270" fill="none" xmlns="http://www.w3.org/2000/svg">
<g clip-path="url(#clip0_2208_2754)">
<path fill-rule="evenodd" clip-rule="evenodd" d="M0 0C114.288 5.04837 184.264 17.0312 291.863 47.4439C322.611 56.1349 355.13 62.9241 385.178 73.1253C413.427 82.715 440.271 95.1311 468.045 105.596C547.048 135.363 602.185 165.03 689 176.5C755.758 185.32 853.468 187.064 921.187 181.679C956.08 178.905 990.391 171.68 1024.79 166.6C1066.89 160.383 1111.31 155.701 1154 153.266C1222.54 149.356 1287.55 157.937 1354.59 167.024C1387.94 171.543 1407.8 176.442 1440 185.174V270H0V0Z" fill="#72E0D9"/>
</g>
<defs>
<clipPath id="clip0_2208_2754">
<rect width="1440" height="270" fill="white"/>
</clipPath>
</defs>
</svg>
