<svg width="38" height="38" viewBox="0 0 38 38" fill="none" xmlns="http://www.w3.org/2000/svg">
<path fill-rule="evenodd" clip-rule="evenodd" d="M18.9434 0C8.46818 0 0 8.70833 0 19.4817C0 28.0935 5.42586 35.3831 12.953 37.9632C13.894 38.1571 14.2388 37.544 14.2388 37.0282C14.2388 36.5766 14.2077 35.0285 14.2077 33.4155C8.93814 34.5768 7.8408 31.0931 7.8408 31.0931C6.99394 28.8353 5.73916 28.255 5.73916 28.255C4.01443 27.0615 5.8648 27.0615 5.8648 27.0615C7.77798 27.1906 8.78188 29.0613 8.78188 29.0613C10.4752 32.0285 13.2038 31.1901 14.3016 30.6739C14.4582 29.416 14.9604 28.5451 15.4935 28.0614C11.2907 27.6098 6.86869 25.9326 6.86869 18.4494C6.86869 16.3206 7.62094 14.5789 8.8129 13.2244C8.62484 12.7407 7.96604 10.7405 9.00135 8.06352C9.00135 8.06352 10.6008 7.54735 14.2073 10.0633C15.7514 9.63696 17.3439 9.42004 18.9434 9.41806C20.5429 9.41806 22.1734 9.64408 23.679 10.0633C27.2859 7.54735 28.8854 8.06352 28.8854 8.06352C29.9207 10.7405 29.2615 12.7407 29.0735 13.2244C30.2969 14.5789 31.0181 16.3206 31.0181 18.4494C31.0181 25.9326 26.5961 27.5773 22.3618 28.0614C23.052 28.6742 23.6476 29.8351 23.6476 31.6738C23.6476 34.2863 23.6166 36.383 23.6166 37.0278C23.6166 37.544 23.9617 38.1571 24.9024 37.9636C32.4295 35.3827 37.8554 28.0935 37.8554 19.4817C37.8864 8.70833 29.3872 0 18.9434 0Z" fill="#25282B"/>
</svg>
